<?xml version="1.0" encoding="UTF-8"?>
<svg id="Layer_2" data-name="Layer 2" xmlns="http://www.w3.org/2000/svg" viewBox="0 0 1186.49 296.52">
  <defs>
    <style>
      .cls-1 {
        fill: #fff;
      }
    </style>
  </defs>
  <g id="Layer_3" data-name="Layer 3">
    <g>
      <g>
        <path class="cls-1" d="M171.22,200.65c-.67-1.56-1.34-3.12-1.78-4.68-.45-1.78-.89-3.79-1.34-5.57-1.56,1.78-3.57,3.34-5.35,4.9-2.01,1.56-4.24,2.9-6.69,4.01-2.68,1.11-5.57,2.01-8.25,2.68-3.12,.67-6.47,.89-9.59,.89-5.35,0-10.48-.67-15.61-2.45-4.46-1.56-8.69-3.79-12.26-6.91-6.91-5.8-10.92-14.49-10.92-23.63,0-11.59,4.24-20.73,12.93-26.98,8.69-6.47,21.63-9.59,38.79-9.59h16.05v-6.47c.22-4.68-1.78-9.36-5.13-12.71-3.57-3.12-8.47-4.68-14.94-4.68-5.8,0-10.03,1.11-12.71,3.79-2.68,2.68-4.24,6.24-4.01,10.03h-28.31c0-4.68,1.11-9.14,3.12-13.38,2.23-4.24,5.35-8.25,9.14-11.15,4.46-3.34,9.36-6.02,14.49-7.58,6.47-2.01,13.15-2.9,19.84-2.9,6.24,0,12.49,.67,18.73,2.45,5.35,1.56,10.48,4.01,14.94,7.36,4.24,3.12,7.8,7.36,10.03,12.26,2.45,5.35,3.79,11.15,3.57,16.94v47.49c0,4.9,.22,9.81,1.11,14.71,.67,3.57,1.78,6.91,3.34,10.03v1.11h-29.21Zm-26.98-19.84c2.68,0,5.35-.22,7.8-.89,2.23-.67,4.46-1.56,6.69-2.68,1.78-.89,3.57-2.23,5.13-3.79,1.34-1.34,2.45-2.68,3.34-4.24v-18.95h-14.49c-3.79,0-7.58,.45-11.37,1.34-2.68,.67-5.35,1.78-7.58,3.57-2.01,1.34-3.57,3.34-4.46,5.57s-1.56,4.68-1.34,6.91c0,3.57,1.34,7.13,4.01,9.59,2.68,2.23,6.69,3.57,12.26,3.57Z"/>
        <path class="cls-1" d="M148.26,296.52C66.44,296.52,0,230.08,0,148.26S66.44,0,148.26,0s148.26,66.44,148.26,148.26-66.44,148.26-148.26,148.26Zm0-275.12c-70.01,0-126.86,56.85-126.86,126.86s56.85,126.86,126.86,126.86,126.86-56.85,126.86-126.86S218.27,21.4,148.26,21.4Z"/>
      </g>
      <g>
        <g>
          <path class="cls-1" d="M419.48,111.9c-.44-1.03-.88-2.06-1.17-3.08-.29-1.17-.59-2.35-.88-3.67-1.03,1.17-2.35,2.2-3.52,3.23-1.32,1.03-2.79,1.91-4.4,2.64-1.76,.73-3.52,1.32-5.43,1.76-2.06,.44-4.26,.59-6.46,.59-3.52,0-6.9-.44-10.28-1.61-2.94-1.03-5.73-2.5-8.07-4.55-2.2-1.91-3.96-4.26-5.28-6.9-1.32-2.79-1.91-5.73-1.91-8.66,0-7.63,2.79-13.65,8.51-17.76,5.73-4.26,14.24-6.31,25.54-6.31h10.42v-4.26c.15-3.08-1.17-6.17-3.38-8.37-2.35-2.06-5.58-3.08-9.84-3.08-3.82,0-6.61,.73-8.37,2.5s-2.79,4.11-2.64,6.61h-18.64c0-3.08,.73-6.02,2.06-8.81,1.47-2.79,3.52-5.43,6.02-7.34,2.94-2.2,6.17-3.96,9.69-4.99,4.26-1.32,8.66-1.91,13.07-1.91,4.11,0,8.22,.44,12.33,1.61,3.52,1.03,6.9,2.64,9.84,4.84,2.79,2.06,4.99,4.84,6.46,7.93,1.61,3.52,2.5,7.34,2.35,11.16v31.27c0,3.23,.15,6.46,.73,9.69,.44,2.35,1.17,4.55,2.2,6.61v.88h-18.94Zm-17.76-13.07c1.76,0,3.52-.15,5.28-.59,1.47-.44,3.08-1.03,4.4-1.76,1.17-.59,2.35-1.47,3.38-2.5,.88-.88,1.61-1.76,2.2-2.79v-12.48h-9.54c-2.5,0-4.99,.29-7.49,.88-1.76,.44-3.52,1.17-4.99,2.35-1.32,.88-2.35,2.2-2.94,3.67s-1.03,3.08-.88,4.55c0,2.35,.88,4.7,2.64,6.31,1.61,1.47,4.26,2.35,7.93,2.35Z"/>
          <path class="cls-1" d="M519.31,37.77c2.64,0,5.28,.15,7.78,.59,2.06,.29,3.96,.73,5.87,1.17l-2.79,18.79c-2.5-.59-4.99-1.03-7.49-1.32s-4.84-.44-7.34-.44c-4.4-.29-8.81,.73-12.63,2.94-3.23,2.06-5.73,5.14-7.05,8.66v43.75h-18.64V39.23h17.47l.88,11.89c2.79-3.96,6.46-7.34,10.57-9.69,3.96-2.5,8.51-3.67,13.36-3.67Z"/>
          <path class="cls-1" d="M606.51,89.15l6.31-49.91h17.18l-13.07,72.81h-16.3l-9.54-46.39-9.25,46.24h-16.44l-13.07-72.67h17.03l6.31,50.21,9.1-50.21h12.48l9.25,49.91Z"/>
          <path class="cls-1" d="M688.28,113.22c-5.28,0-10.42-.88-15.27-2.79-4.4-1.76-8.37-4.26-11.74-7.49-3.23-3.23-5.87-6.9-7.49-11.16-1.76-4.4-2.64-9.1-2.64-13.8v-2.64c0-5.14,.88-10.42,2.64-15.27,1.61-4.4,4.11-8.51,7.34-11.89,3.08-3.38,6.9-6.02,11.16-7.78,8.96-3.67,19.08-3.67,28.04-.15,3.96,1.61,7.49,4.11,10.42,7.34,2.94,3.23,5.14,7.19,6.46,11.3,1.47,4.7,2.35,9.69,2.2,14.68v7.93h-49.47c.29,2.35,1.03,4.7,2.2,6.75,2.2,4.11,5.73,7.19,10.13,8.66,2.35,.88,4.7,1.17,7.19,1.17,1.91,0,3.67-.15,5.43-.59,1.76-.29,3.52-.88,5.14-1.61s3.23-1.61,4.7-2.64c1.47-1.03,2.64-2.2,3.82-3.67l9.4,10.13c-1.32,1.76-2.79,3.38-4.55,4.84-2.06,1.76-4.26,3.08-6.61,4.26-2.64,1.32-5.58,2.2-8.51,2.94-3.23,1.03-6.61,1.47-9.98,1.47Zm-2.2-60.34c-2.06,0-3.96,.29-5.73,1.17-1.76,.73-3.38,1.76-4.55,3.23-1.32,1.47-2.5,3.08-3.38,4.99-.88,2.06-1.61,4.26-2.06,6.46h30.68v-1.47c-.15-1.91-.44-3.82-1.17-5.58-.59-1.76-1.61-3.23-2.94-4.55-1.32-1.32-2.94-2.35-4.55-3.08-2.06-.73-4.11-1.17-6.31-1.17Z"/>
          <path class="cls-1" d="M791.48,111.9c-.44-1.03-.88-2.06-1.17-3.08-.29-1.17-.59-2.5-.73-3.67-1.17,1.17-2.35,2.2-3.67,3.23s-2.79,1.91-4.4,2.64c-1.76,.73-3.52,1.32-5.43,1.76-2.06,.44-4.26,.59-6.46,.59-3.52,0-6.9-.44-10.28-1.61-2.94-1.03-5.73-2.5-8.07-4.55-4.55-3.82-7.19-9.54-7.19-15.56,0-7.63,2.79-13.65,8.51-17.76,5.73-4.26,14.24-6.31,25.54-6.31h10.42v-4.26c.15-3.08-1.17-6.17-3.38-8.37-2.35-2.06-5.58-3.08-9.84-3.08-3.82,0-6.61,.73-8.37,2.5s-2.79,4.11-2.64,6.61h-18.64c0-3.08,.73-6.02,2.06-8.81,1.47-2.79,3.52-5.43,6.02-7.34,2.94-2.2,6.17-3.96,9.69-4.99,4.26-1.32,8.66-1.91,13.07-1.91,4.11,0,8.22,.44,12.33,1.61,3.52,1.03,6.9,2.64,9.84,4.84,2.79,2.06,4.99,4.84,6.46,7.93,1.61,3.52,2.5,7.34,2.35,11.16v31.27c0,3.23,.15,6.46,.73,9.69,.44,2.35,1.17,4.55,2.2,6.61v.88h-18.94Zm-17.76-13.07c1.76,0,3.52-.15,5.28-.59,1.47-.44,2.94-1.03,4.4-1.76,1.17-.59,2.35-1.47,3.38-2.5,.88-.88,1.61-1.76,2.2-2.79v-12.48h-9.54c-2.5,0-4.99,.29-7.49,.88-1.76,.44-3.52,1.17-4.99,2.35-1.32,.88-2.35,2.2-2.94,3.67s-1.03,3.08-.88,4.55c0,2.35,.88,4.7,2.64,6.31,1.61,1.47,4.26,2.35,7.93,2.35Z"/>
          <path class="cls-1" d="M870.02,90.32l.88,5.28,.88-4.99,16-51.38h19.52l-27.6,72.67h-17.62l-27.75-72.67h19.52l16.15,51.09Z"/>
          <path class="cls-1" d="M967.35,113.22c-5.28,0-10.42-.88-15.27-2.79-4.4-1.76-8.37-4.26-11.74-7.49-3.23-3.23-5.87-6.9-7.63-11.16-1.76-4.4-2.64-9.1-2.64-13.8v-2.64c0-5.14,.88-10.42,2.64-15.27,1.61-4.4,4.11-8.51,7.34-11.89,3.08-3.38,6.9-6.02,11.16-7.78,8.95-3.67,19.08-3.67,28.04-.15,3.96,1.61,7.49,4.11,10.42,7.34,2.94,3.23,5.14,7.19,6.46,11.3,1.47,4.7,2.2,9.69,2.2,14.68v7.93h-49.33c.29,2.35,1.03,4.7,2.2,6.75,2.2,4.11,5.73,7.19,9.98,8.66,2.35,.88,4.7,1.17,7.19,1.17,1.91,0,3.67-.15,5.43-.59,1.76-.29,3.52-.88,5.14-1.61s3.23-1.61,4.7-2.64c1.47-1.03,2.64-2.2,3.82-3.67l9.4,10.13c-1.32,1.76-2.79,3.38-4.55,4.84-2.06,1.76-4.26,3.08-6.61,4.26-2.64,1.32-5.58,2.2-8.51,2.94-3.08,1.03-6.46,1.47-9.84,1.47Zm-2.2-60.34c-2.06,0-3.96,.29-5.73,1.17-1.76,.73-3.38,1.76-4.55,3.23-1.32,1.47-2.5,3.08-3.38,4.99-.88,2.06-1.61,4.26-2.06,6.46h30.68v-1.47c-.15-1.91-.44-3.82-1.17-5.58-.59-1.76-1.61-3.23-2.94-4.55-1.32-1.32-2.94-2.35-4.55-3.08-2.06-.73-4.26-1.17-6.31-1.17Z"/>
        </g>
        <g>
          <path class="cls-1" d="M409.12,245.88c-5.58,0-10.64-.96-15.19-2.88-4.55-1.92-8.45-4.53-11.71-7.84-3.26-3.3-5.76-7.19-7.53-11.67-1.76-4.48-2.64-9.27-2.64-14.38v-2.81c0-5.81,.87-11.12,2.61-15.92,1.74-4.8,4.17-8.94,7.29-12.41,3.12-3.47,6.82-6.16,11.1-8.08,4.28-1.92,8.94-2.88,13.98-2.88s9.87,.9,13.95,2.71c4.08,1.8,7.54,4.35,10.37,7.63,2.83,3.28,4.98,7.23,6.46,11.85,1.47,4.62,2.21,9.71,2.21,15.29v8.3h-49.1c.36,2.58,1.08,4.93,2.17,7.07,1.09,2.13,2.49,3.97,4.18,5.52,1.69,1.55,3.63,2.74,5.82,3.59,2.18,.84,4.57,1.27,7.16,1.27,1.83,0,3.65-.19,5.45-.56,1.81-.37,3.53-.92,5.18-1.65,1.65-.73,3.19-1.63,4.62-2.71,1.43-1.08,2.68-2.34,3.75-3.8l9.3,10.55c-1.16,1.73-2.67,3.43-4.52,5.1-1.85,1.66-4.04,3.14-6.56,4.43-2.52,1.29-5.32,2.33-8.4,3.13s-6.4,1.2-9.97,1.2Zm-2.21-63.06c-2.1,0-4.01,.39-5.75,1.16-1.74,.77-3.27,1.89-4.58,3.34-1.32,1.45-2.42,3.19-3.31,5.2-.89,2.02-1.56,4.27-2.01,6.75h30.5v-1.55c-.09-2.06-.47-4.01-1.14-5.84-.67-1.83-1.63-3.41-2.88-4.75-1.25-1.34-2.78-2.39-4.58-3.16-1.81-.77-3.89-1.16-6.25-1.16Z"/>
          <path class="cls-1" d="M499.22,230.27c1.83,0,3.57-.28,5.22-.84,1.65-.56,3.1-1.36,4.35-2.39,1.25-1.03,2.22-2.27,2.91-3.73,.69-1.45,.99-3.07,.9-4.85h17.53c.09,3.94-.68,7.59-2.31,10.97-1.63,3.37-3.85,6.28-6.66,8.72-2.81,2.44-6.08,4.35-9.8,5.73-3.72,1.38-7.66,2.07-11.81,2.07-5.62,0-10.55-1-14.78-2.99-4.24-1.99-7.77-4.72-10.6-8.19-2.83-3.47-4.97-7.53-6.42-12.2-1.45-4.66-2.17-9.67-2.17-15.01v-2.11c0-5.34,.71-10.35,2.14-15.01,1.43-4.66,3.57-8.73,6.42-12.2,2.85-3.47,6.39-6.21,10.6-8.23,4.21-2.01,9.11-3.02,14.68-3.02,4.46,0,8.58,.7,12.38,2.11,3.79,1.41,7.06,3.39,9.8,5.94,2.74,2.56,4.87,5.65,6.39,9.28,1.52,3.63,2.23,7.7,2.14,12.2h-17.53c.09-1.87-.18-3.66-.8-5.34-.62-1.69-1.54-3.14-2.74-4.36-1.2-1.22-2.65-2.19-4.35-2.92-1.7-.73-3.55-1.09-5.55-1.09-2.94,0-5.37,.63-7.29,1.9-1.92,1.27-3.45,2.95-4.58,5.06-1.14,2.11-1.94,4.52-2.41,7.24-.47,2.72-.7,5.53-.7,8.44v2.11c0,2.95,.22,5.8,.67,8.54,.45,2.74,1.24,5.16,2.37,7.24,1.14,2.09,2.68,3.76,4.62,5.03,1.94,1.27,4.4,1.9,7.39,1.9Z"/>
          <path class="cls-1" d="M557.81,205.73c0-5.53,.76-10.65,2.27-15.36,1.52-4.71,3.73-8.8,6.66-12.27,2.92-3.47,6.49-6.19,10.7-8.15,4.21-1.97,9.04-2.95,14.48-2.95s10.28,.98,14.52,2.95c4.24,1.97,7.82,4.69,10.74,8.15,2.92,3.47,5.14,7.56,6.66,12.27,1.52,4.71,2.27,9.83,2.27,15.36v1.48c0,5.58-.76,10.72-2.27,15.43-1.52,4.71-3.72,8.8-6.62,12.27-2.9,3.47-6.47,6.18-10.7,8.12-4.24,1.94-9.05,2.92-14.45,2.92s-10.29-.97-14.55-2.92c-4.26-1.94-7.85-4.65-10.77-8.12-2.92-3.47-5.14-7.56-6.66-12.27-1.52-4.71-2.27-9.85-2.27-15.43v-1.48Zm18.6,1.48c0,3.19,.29,6.18,.87,8.96,.58,2.79,1.49,5.23,2.74,7.31,1.25,2.09,2.86,3.74,4.85,4.96,1.98,1.22,4.38,1.83,7.19,1.83s5.06-.61,7.02-1.83c1.96-1.22,3.56-2.87,4.78-4.96,1.23-2.08,2.13-4.52,2.71-7.31,.58-2.79,.87-5.78,.87-8.96v-1.48c0-3.09-.29-6.02-.87-8.79-.58-2.77-1.48-5.2-2.71-7.31-1.23-2.11-2.82-3.77-4.78-4.99-1.96-1.22-4.35-1.83-7.16-1.83s-5.13,.61-7.09,1.83c-1.96,1.22-3.57,2.88-4.82,4.99-1.25,2.11-2.16,4.55-2.74,7.31-.58,2.77-.87,5.69-.87,8.79v1.48Z"/>
          <path class="cls-1" d="M700.22,223.59c0-1.17-.26-2.2-.77-3.09-.51-.89-1.43-1.72-2.74-2.5-1.32-.77-3.07-1.49-5.25-2.14-2.19-.66-4.95-1.31-8.29-1.97-4.24-.89-8.11-2-11.61-3.34-3.5-1.34-6.5-2.95-9-4.85-2.5-1.9-4.45-4.09-5.85-6.57-1.4-2.48-2.11-5.34-2.11-8.58s.71-6.14,2.14-9c1.43-2.86,3.48-5.37,6.15-7.52,2.68-2.15,5.93-3.87,9.77-5.13,3.83-1.27,8.16-1.9,12.98-1.9s9.57,.62,13.58,1.86c4.01,1.24,7.41,2.95,10.2,5.13,2.79,2.18,4.92,4.77,6.39,7.77,1.47,3,2.21,6.26,2.21,9.77h-18.6c0-2.95-1.14-5.42-3.41-7.42-2.27-1.99-5.73-2.99-10.37-2.99-4.33,0-7.59,.82-9.8,2.46-2.21,1.64-3.31,3.66-3.31,6.05,0,1.12,.22,2.17,.67,3.13,.44,.96,1.24,1.83,2.37,2.6,1.14,.77,2.69,1.48,4.65,2.11,1.96,.63,4.46,1.18,7.49,1.65,4.37,.75,8.43,1.71,12.17,2.88,3.75,1.17,6.98,2.68,9.7,4.53,2.72,1.85,4.85,4.1,6.39,6.75,1.54,2.65,2.31,5.8,2.31,9.46,0,3.37-.77,6.48-2.31,9.32-1.54,2.84-3.72,5.28-6.56,7.35-2.83,2.06-6.25,3.67-10.27,4.82s-8.5,1.72-13.45,1.72c-5.44,0-10.25-.75-14.42-2.25s-7.66-3.46-10.47-5.87c-2.81-2.41-4.94-5.16-6.39-8.23-1.45-3.07-2.17-6.15-2.17-9.24h17.73c.13,2.06,.67,3.83,1.61,5.31,.94,1.48,2.14,2.67,3.61,3.59,1.47,.91,3.16,1.58,5.05,2s3.85,.63,5.85,.63c4.59,0,8.09-.77,10.5-2.32,2.41-1.55,3.61-3.54,3.61-5.98Z"/>
          <path class="cls-1" d="M777.54,212.55l2.14,8.16,19.27-52.31h20.54l-36.72,87.46c-.8,1.92-1.84,4.01-3.11,6.26-1.27,2.25-2.87,4.33-4.78,6.26-1.92,1.92-4.25,3.54-6.99,4.85-2.74,1.31-5.99,1.97-9.73,1.97-.89,0-1.72-.04-2.47-.11-.76-.07-1.5-.16-2.21-.28-.71-.12-1.42-.26-2.11-.42-.69-.16-1.44-.36-2.24-.6l2.28-14.9c.76,0,1.73,.04,2.91,.11s2.13,.11,2.84,.11c1.47,0,2.78-.47,3.91-1.41,1.14-.94,2.11-1.97,2.91-3.09s1.45-2.16,1.94-3.09c.49-.94,.82-1.41,1-1.41l4.48-8.86-30.64-72.83h20.34l16.46,44.15Z"/>
          <path class="cls-1" d="M886.57,223.59c0-1.17-.26-2.2-.77-3.09-.51-.89-1.43-1.72-2.74-2.5-1.32-.77-3.07-1.49-5.25-2.14-2.19-.66-4.95-1.31-8.29-1.97-4.24-.89-8.11-2-11.61-3.34-3.5-1.34-6.5-2.95-9-4.85-2.5-1.9-4.45-4.09-5.85-6.57-1.4-2.48-2.11-5.34-2.11-8.58s.71-6.14,2.14-9c1.43-2.86,3.48-5.37,6.15-7.52,2.68-2.15,5.93-3.87,9.77-5.13,3.83-1.27,8.16-1.9,12.98-1.9s9.57,.62,13.58,1.86c4.01,1.24,7.41,2.95,10.2,5.13,2.79,2.18,4.92,4.77,6.39,7.77,1.47,3,2.21,6.26,2.21,9.77h-18.6c0-2.95-1.14-5.42-3.41-7.42-2.27-1.99-5.73-2.99-10.37-2.99-4.33,0-7.59,.82-9.8,2.46-2.21,1.64-3.31,3.66-3.31,6.05,0,1.12,.22,2.17,.67,3.13,.44,.96,1.24,1.83,2.37,2.6,1.14,.77,2.69,1.48,4.65,2.11,1.96,.63,4.46,1.18,7.49,1.65,4.37,.75,8.43,1.71,12.17,2.88,3.75,1.17,6.98,2.68,9.7,4.53,2.72,1.85,4.85,4.1,6.39,6.75,1.54,2.65,2.31,5.8,2.31,9.46,0,3.37-.77,6.48-2.31,9.32-1.54,2.84-3.72,5.28-6.56,7.35-2.83,2.06-6.25,3.67-10.27,4.82s-8.5,1.72-13.45,1.72c-5.44,0-10.25-.75-14.42-2.25s-7.66-3.46-10.47-5.87c-2.81-2.41-4.94-5.16-6.39-8.23-1.45-3.07-2.17-6.15-2.17-9.24h17.73c.13,2.06,.67,3.83,1.61,5.31,.94,1.48,2.14,2.67,3.61,3.59,1.47,.91,3.16,1.58,5.05,2s3.85,.63,5.85,.63c4.59,0,8.09-.77,10.5-2.32,2.41-1.55,3.61-3.54,3.61-5.98Z"/>
          <path class="cls-1" d="M967.16,149.77v18.63h27.03v14.41h-27.03v32.69c0,2.77,.3,5.07,.9,6.92,.6,1.85,1.46,3.33,2.58,4.43,1.11,1.1,2.46,1.89,4.05,2.35,1.58,.47,3.35,.7,5.32,.7,1.43,0,2.89-.07,4.38-.21s2.92-.32,4.28-.53,2.63-.43,3.81-.67c1.18-.23,2.2-.47,3.04-.7l1.81,13.43c-1.29,.8-2.81,1.49-4.55,2.07-1.74,.59-3.59,1.07-5.55,1.44-1.96,.37-4,.67-6.12,.88-2.12,.21-4.2,.32-6.25,.32-3.97,0-7.57-.55-10.8-1.65s-6-2.81-8.29-5.13c-2.3-2.32-4.07-5.27-5.32-8.86-1.25-3.59-1.87-7.88-1.87-12.9v-34.59h-16.52v-14.41h16.52v-18.63h18.6Z"/>
          <path class="cls-1" d="M1061.34,245.88c-5.58,0-10.64-.96-15.18-2.88-4.55-1.92-8.45-4.53-11.71-7.84-3.26-3.3-5.76-7.19-7.53-11.67-1.76-4.48-2.64-9.27-2.64-14.38v-2.81c0-5.81,.87-11.12,2.61-15.92,1.74-4.8,4.17-8.94,7.29-12.41,3.12-3.47,6.82-6.16,11.1-8.08,4.28-1.92,8.94-2.88,13.98-2.88s9.87,.9,13.95,2.71c4.08,1.8,7.54,4.35,10.37,7.63,2.83,3.28,4.98,7.23,6.46,11.85,1.47,4.62,2.21,9.71,2.21,15.29v8.3h-49.1c.36,2.58,1.08,4.93,2.17,7.07,1.09,2.13,2.49,3.97,4.18,5.52,1.69,1.55,3.63,2.74,5.82,3.59,2.18,.84,4.57,1.27,7.16,1.27,1.83,0,3.65-.19,5.45-.56,1.81-.37,3.53-.92,5.18-1.65,1.65-.73,3.19-1.63,4.62-2.71,1.43-1.08,2.68-2.34,3.75-3.8l9.3,10.55c-1.16,1.73-2.67,3.43-4.52,5.1-1.85,1.66-4.04,3.14-6.56,4.43-2.52,1.29-5.32,2.33-8.39,3.13-3.08,.8-6.4,1.2-9.97,1.2Zm-2.21-63.06c-2.1,0-4.01,.39-5.75,1.16-1.74,.77-3.27,1.89-4.58,3.34-1.32,1.45-2.42,3.19-3.31,5.2-.89,2.02-1.56,4.27-2.01,6.75h30.5v-1.55c-.09-2.06-.47-4.01-1.14-5.84-.67-1.83-1.63-3.41-2.88-4.75-1.25-1.34-2.78-2.39-4.58-3.16-1.81-.77-3.89-1.16-6.25-1.16Z"/>
          <path class="cls-1" d="M1130.96,168.4l.54,9.21c1.38-3.28,3.29-5.87,5.72-7.77,2.43-1.9,5.38-2.85,8.86-2.85,5.84,0,9.65,2.7,11.44,8.08,1.43-2.53,3.24-4.51,5.45-5.94,2.21-1.43,4.87-2.14,7.99-2.14,2.18,0,4.22,.42,6.12,1.27,1.89,.84,3.54,2.19,4.95,4.04,1.4,1.85,2.5,4.24,3.28,7.17,.78,2.93,1.17,6.5,1.17,10.72v54.27h-16.92v-54.34c0-1.45-.15-2.65-.44-3.59-.29-.94-.68-1.68-1.17-2.21-.49-.54-1.06-.91-1.71-1.12-.65-.21-1.3-.32-1.97-.32-1.29,0-2.39,.32-3.28,.95-.89,.63-1.58,1.49-2.07,2.57v58.07h-16.39v-54.41c0-1.45-.13-2.65-.4-3.59-.27-.94-.63-1.66-1.1-2.18-.47-.52-1.01-.88-1.64-1.09-.62-.21-1.29-.32-2.01-.32-1.43,0-2.58,.42-3.45,1.27-.87,.84-1.55,1.97-2.04,3.37v56.94h-16.92v-76.07h15.99Z"/>
        </g>
      </g>
    </g>
  </g>
</svg>