<svg width="98" height="215" viewBox="0 0 98 215" fill="none" xmlns="http://www.w3.org/2000/svg">
<path fill-rule="evenodd" clip-rule="evenodd" d="M73.6292 197.614C73.6292 197.614 67.5258 192.584 61.3114 197.103C48.2998 206.564 33.2081 195.928 37.1362 182.926C42.6976 164.518 63.5566 176.453 65.0469 165.781C66.5368 155.107 52.7609 147.647 44.4763 149.235C23.8753 153.184 4.72721 148.222 1.08284 115.876C-1.707 91.105 18.8737 64.0188 62.2277 76.3001C100.173 87.0494 100.321 69.6835 100.925 53.9095C101.529 38.1361 121.677 -16.1186 170.184 4.74963C228.893 30.0079 191.349 72.8379 214.027 87.1503C236.316 101.216 251.267 72.3868 284.523 77.1947C325.414 83.1061 337.442 131.892 293.174 157.159C259.396 176.437 226.466 158.979 226.104 219.129L103.084 259.339L73.6292 197.614Z" fill="#F4CB78"/>
</svg>
