<svg width="98" height="128" viewBox="0 0 98 128" fill="none" xmlns="http://www.w3.org/2000/svg">
<path d="M104.591 152.551H6.05177C2.78377 152.551 0.134277 149.902 0.134277 146.634V6.04738C0.134277 2.77938 2.78327 0.129883 6.05177 0.129883H104.591C107.859 0.129883 110.509 2.77938 110.509 6.04738V146.634C110.509 149.902 107.859 152.551 104.591 152.551Z" fill="#F5F5F5"/>
<path d="M110.509 13.8634H0.134277V6.09538C0.134277 2.80088 2.80478 0.129883 6.09978 0.129883H104.543C107.838 0.129883 110.508 2.80038 110.508 6.09538V13.8634H110.509Z" fill="#E0E0E0"/>
<path d="M7.11391 9.18998C8.32534 9.18998 9.30742 8.20792 9.30742 6.99648C9.30742 5.78504 8.32534 4.80298 7.11391 4.80298C5.90247 4.80298 4.92041 5.78504 4.92041 6.99648C4.92041 8.20792 5.90247 9.18998 7.11391 9.18998Z" fill="white"/>
<path d="M15.8885 6.99648C15.8885 8.20798 14.9065 9.18998 13.695 9.18998C12.4835 9.18998 11.5015 8.20798 11.5015 6.99648C11.5015 5.78498 12.4835 4.80298 13.695 4.80298C14.906 4.80298 15.8885 5.78498 15.8885 6.99648Z" fill="white"/>
<path d="M20.3424 9.18998C21.5539 9.18998 22.5359 8.20792 22.5359 6.99648C22.5359 5.78504 21.5539 4.80298 20.3424 4.80298C19.131 4.80298 18.1489 5.78504 18.1489 6.99648C18.1489 8.20792 19.131 9.18998 20.3424 9.18998Z" fill="white"/>
<path d="M105.529 13.8635H5.11426V149.52H105.529V13.8635Z" fill="white"/>
<path d="M104.355 152.551C104.355 152.551 104.467 152.542 104.689 152.528C104.912 152.524 105.241 152.479 105.671 152.393C106.51 152.2 107.815 151.731 108.956 150.436C109.521 149.798 110.021 148.953 110.276 147.928C110.567 146.907 110.448 145.735 110.47 144.484C110.467 141.975 110.463 139.082 110.458 135.824C110.449 122.791 110.434 103.935 110.417 80.637C110.412 68.987 110.407 56.226 110.401 42.5275C110.399 35.678 110.396 28.594 110.394 21.297C110.393 17.6485 110.392 13.9465 110.391 10.1945C110.391 9.2565 110.391 8.315 110.391 7.371C110.393 6.4225 110.421 5.483 110.143 4.586C109.624 2.797 108.22 1.2605 106.436 0.626999C105.996 0.452999 105.529 0.3605 105.061 0.296C104.594 0.246 104.113 0.247499 103.626 0.251499C102.658 0.251499 101.686 0.251999 100.712 0.251999C98.7625 0.252499 96.802 0.252498 94.83 0.252998C90.8865 0.253498 86.8975 0.254499 82.866 0.254999C74.8035 0.255999 66.571 0.256999 58.19 0.258499C41.4285 0.259499 24.0745 0.26 6.30003 0.261C5.21453 0.2765 4.12253 0.546499 3.19903 1.1205C2.26153 1.6695 1.50103 2.493 0.979534 3.438C0.473534 4.398 0.229034 5.4735 0.264034 6.5645C0.264034 7.6655 0.264034 8.765 0.264034 9.8625C0.264034 14.2525 0.263531 18.613 0.263531 22.942C0.263031 31.6 0.262032 40.131 0.261532 48.514C0.259032 65.2795 0.256525 81.451 0.254025 96.856C0.250025 112.261 0.246031 126.9 0.242031 140.6C0.241531 142.312 0.241032 144.011 0.240032 145.693C0.223032 146.539 0.249035 147.361 0.499035 148.15C0.733035 148.936 1.13202 149.668 1.65702 150.288C2.70102 151.536 4.24903 152.319 5.84103 152.428C7.44653 152.474 9.06402 152.441 10.65 152.452C17.009 152.455 23.1115 152.458 28.9365 152.461C52.235 152.478 71.0885 152.492 84.1205 152.502C90.6335 152.512 95.6915 152.521 99.124 152.527C100.837 152.532 102.144 152.536 103.026 152.54C103.904 152.543 104.355 152.551 104.355 152.551C104.355 152.551 103.904 152.561 103.025 152.565C102.144 152.568 100.837 152.572 99.1235 152.578C95.691 152.583 90.6335 152.592 84.12 152.603C71.088 152.613 52.2345 152.626 28.936 152.644C23.111 152.646 17.0085 152.649 10.6495 152.652C9.05653 152.643 7.46103 152.677 5.82553 152.632C4.18003 152.521 2.57752 151.713 1.49702 150.422C0.953521 149.781 0.540527 149.024 0.297527 148.211C0.0380274 147.402 0.0105232 146.525 0.0275232 145.693C0.0270232 144.01 0.0265243 142.312 0.0255243 140.6C0.0220243 126.9 0.0175309 112.26 0.0135309 96.8555C0.0110309 81.45 0.00852353 65.2785 0.00602353 48.5135C0.00552353 40.131 0.00452463 31.5995 0.00402463 22.9415C0.00402463 18.6125 0.00352109 14.2515 0.00352109 9.862C0.00352109 8.7645 0.00352109 7.6655 0.00352109 6.564C-0.0334789 5.4505 0.221523 4.31 0.749523 3.314C1.29302 2.3275 2.08653 1.4695 3.06453 0.8965C4.02803 0.2985 5.16903 0.0155 6.29953 0C24.074 0.001 41.4285 0.00199863 58.1895 0.00249863C66.57 0.00349863 74.8025 0.00449889 82.8655 0.00549889C86.897 0.00599889 90.8855 0.00699969 94.8295 0.00749969C96.8015 0.00799969 98.762 0.00799915 100.711 0.00849915C101.686 0.00849915 102.657 0.00899887 103.626 0.00899887C104.107 0.00549887 104.596 0.00349976 105.089 0.0559998C105.575 0.123 106.061 0.219999 106.518 0.400999C108.374 1.0615 109.832 2.658 110.371 4.5185C110.659 5.4525 110.629 6.437 110.626 7.3705C110.626 8.315 110.626 9.256 110.626 10.194C110.625 13.9465 110.624 17.648 110.623 21.2965C110.62 28.5935 110.618 35.6775 110.616 42.527C110.61 56.226 110.605 68.9865 110.6 80.6365C110.583 103.935 110.569 122.79 110.559 135.824C110.554 139.081 110.55 141.975 110.547 144.483C110.52 145.73 110.636 146.908 110.338 147.944C110.076 148.979 109.567 149.829 108.994 150.47C107.837 151.771 106.52 152.233 105.676 152.419C105.244 152.501 104.912 152.542 104.689 152.541C104.467 152.551 104.355 152.551 104.355 152.551Z" fill="#263238"/>
<path d="M14.9441 34.3687H30.2171L30.3621 38.9587H29.7156C29.3991 37.5167 28.9966 36.5782 28.5091 36.1427C28.0206 35.7072 26.9946 35.4897 25.4296 35.4897H23.9256V49.3122C23.9256 50.3532 24.0881 50.9981 24.4141 51.2472C24.7391 51.4967 25.4511 51.6607 26.5506 51.7392V52.2402H18.6766V51.7392C19.8196 51.6517 20.5321 51.4636 20.8131 51.1746C21.0946 50.8861 21.2356 50.1597 21.2356 48.9957V35.4902H19.7186C18.2236 35.4902 17.2061 35.7057 16.6656 36.1367C16.1246 36.5677 15.7181 37.5082 15.4456 38.9592H14.7861L14.9441 34.3687Z" fill="#263238"/>
<path d="M83.9824 23.6124C83.9824 23.6064 84.0734 23.6004 84.2634 23.5944C84.4709 23.5904 84.7574 23.5849 85.1419 23.5774V23.6474C81.8954 23.7024 70.7769 23.7429 57.5814 23.7429C49.6569 23.7279 42.4839 23.7144 37.2704 23.7049C34.6859 23.6874 32.5879 23.6734 31.1154 23.6634C30.4034 23.6529 29.8429 23.6449 29.4419 23.6389C29.2629 23.6334 29.1194 23.6294 29.0069 23.6259C28.9089 23.6214 28.8584 23.6169 28.8584 23.6124C28.8584 23.6079 28.9084 23.6034 29.0069 23.5989C29.1194 23.5954 29.2629 23.5914 29.4419 23.5859C29.8429 23.5799 30.4029 23.5719 31.1154 23.5614C32.5874 23.5514 34.6859 23.5374 37.2704 23.5199C42.4839 23.5099 49.6564 23.4964 57.5814 23.4819C70.7769 23.4819 81.8954 23.5224 85.1419 23.5774V23.6474C84.7579 23.6399 84.4709 23.6344 84.2634 23.6304C84.0734 23.6244 83.9824 23.6184 83.9824 23.6124Z" fill="#263238"/>
<path d="M53.679 34.5331C53.679 34.6051 49.479 34.6631 44.299 34.6631C39.117 34.6631 34.918 34.6046 34.918 34.5331C34.918 34.4616 39.117 34.4031 44.299 34.4031C49.479 34.4026 53.679 34.4611 53.679 34.5331Z" fill="#263238"/>
<path d="M53.679 38.9596C53.679 39.0316 49.479 39.0896 44.299 39.0896C39.117 39.0896 34.918 39.0311 34.918 38.9596C34.918 38.8881 39.117 38.8296 44.299 38.8296C49.479 38.8296 53.679 38.8876 53.679 38.9596Z" fill="#263238"/>
<path d="M53.679 43.3866C53.679 43.4586 49.479 43.5166 44.299 43.5166C39.117 43.5166 34.918 43.4581 34.918 43.3866C34.918 43.3146 39.117 43.2566 44.299 43.2566C49.479 43.2566 53.679 43.3146 53.679 43.3866Z" fill="#263238"/>
<path d="M53.679 47.8131C53.679 47.8851 49.479 47.9431 44.299 47.9431C39.117 47.9431 34.918 47.8846 34.918 47.8131C34.918 47.7416 39.117 47.6831 44.299 47.6831C49.479 47.6831 53.679 47.7416 53.679 47.8131Z" fill="#263238"/>
<path d="M53.679 52.2401C53.679 52.3121 49.479 52.3701 44.299 52.3701C39.117 52.3701 34.918 52.3116 34.918 52.2401C34.918 52.1686 39.117 52.1101 44.299 52.1101C49.479 52.1101 53.679 52.1681 53.679 52.2401Z" fill="#263238"/>
<path d="M53.6793 56.6669C53.6793 56.7389 44.8073 56.7969 33.8653 56.7969C22.9198 56.7969 14.0493 56.7384 14.0493 56.6669C14.0493 56.5949 22.9198 56.5369 33.8653 56.5369C44.8068 56.5364 53.6793 56.5949 53.6793 56.6669Z" fill="#263238"/>
<path d="M53.6793 60.8824C53.6793 60.9544 44.8073 61.0124 33.8653 61.0124C22.9198 61.0124 14.0493 60.9539 14.0493 60.8824C14.0493 60.8104 22.9198 60.7524 33.8653 60.7524C44.8068 60.7524 53.6793 60.8109 53.6793 60.8824Z" fill="#263238"/>
<path d="M53.6793 65.099C53.6793 65.171 44.8073 65.229 33.8653 65.229C22.9198 65.229 14.0493 65.1705 14.0493 65.099C14.0493 65.0275 22.9198 64.969 33.8653 64.969C44.8068 64.9685 53.6793 65.027 53.6793 65.099Z" fill="#263238"/>
<path d="M53.6793 69.3143C53.6793 69.3863 44.8073 69.4443 33.8653 69.4443C22.9198 69.4443 14.0493 69.3858 14.0493 69.3143C14.0493 69.2428 22.9198 69.1843 33.8653 69.1843C44.8068 69.1843 53.6793 69.2428 53.6793 69.3143Z" fill="#263238"/>
<path d="M53.6793 73.5304C53.6793 73.6024 44.8073 73.6604 33.8653 73.6604C22.9198 73.6604 14.0493 73.6019 14.0493 73.5304C14.0493 73.4584 22.9198 73.4004 33.8653 73.4004C44.8068 73.4004 53.6793 73.4589 53.6793 73.5304Z" fill="#263238"/>
<path d="M53.6793 77.7465C53.6793 77.8185 44.8073 77.8765 33.8653 77.8765C22.9198 77.8765 14.0493 77.818 14.0493 77.7465C14.0493 77.6745 22.9198 77.6165 33.8653 77.6165C44.8068 77.6165 53.6793 77.675 53.6793 77.7465Z" fill="#263238"/>
<path d="M53.6793 81.9625C53.6793 82.0345 44.8073 82.0925 33.8653 82.0925C22.9198 82.0925 14.0493 82.034 14.0493 81.9625C14.0493 81.891 22.9198 81.8325 33.8653 81.8325C44.8068 81.8325 53.6793 81.891 53.6793 81.9625Z" fill="#263238"/>
<path d="M53.6793 86.1783C53.6793 86.2503 44.8073 86.3083 33.8653 86.3083C22.9198 86.3083 14.0493 86.2498 14.0493 86.1783C14.0493 86.1068 22.9198 86.0483 33.8653 86.0483C44.8068 86.0483 53.6793 86.1068 53.6793 86.1783Z" fill="#263238"/>
<path d="M95.6703 34.5328C95.6703 34.6048 87.3548 34.6628 77.0998 34.6628C66.8413 34.6628 58.5278 34.6043 58.5278 34.5328C58.5278 34.4613 66.8413 34.4028 77.0998 34.4028C87.3548 34.4023 95.6703 34.4608 95.6703 34.5328Z" fill="#263238"/>
<path d="M95.6703 38.7489C95.6703 38.8209 87.3548 38.8789 77.0998 38.8789C66.8413 38.8789 58.5278 38.8204 58.5278 38.7489C58.5278 38.6774 66.8413 38.6189 77.0998 38.6189C87.3548 38.6184 95.6703 38.6769 95.6703 38.7489Z" fill="#263238"/>
<path d="M95.6703 42.965C95.6703 43.037 87.3548 43.095 77.0998 43.095C66.8413 43.095 58.5278 43.0365 58.5278 42.965C58.5278 42.893 66.8413 42.835 77.0998 42.835C87.3548 42.8345 95.6703 42.893 95.6703 42.965Z" fill="#263238"/>
<path d="M95.6703 47.1808C95.6703 47.2528 87.3548 47.3108 77.0998 47.3108C66.8413 47.3108 58.5278 47.2523 58.5278 47.1808C58.5278 47.1093 66.8413 47.0508 77.0998 47.0508C87.3548 47.0503 95.6703 47.1088 95.6703 47.1808Z" fill="#263238"/>
<path d="M95.6703 51.3968C95.6703 51.4688 87.3548 51.5268 77.0998 51.5268C66.8413 51.5268 58.5278 51.4683 58.5278 51.3968C58.5278 51.3253 66.8413 51.2668 77.0998 51.2668C87.3548 51.2663 95.6703 51.3248 95.6703 51.3968Z" fill="#263238"/>
<path d="M95.6703 55.6129C95.6703 55.6849 87.3548 55.7429 77.0998 55.7429C66.8413 55.7429 58.5278 55.6844 58.5278 55.6129C58.5278 55.5414 66.8413 55.4829 77.0998 55.4829C87.3548 55.4824 95.6703 55.5409 95.6703 55.6129Z" fill="#263238"/>
<path d="M95.6703 59.8282C95.6703 59.9002 87.3548 59.9582 77.0998 59.9582C66.8413 59.9582 58.5278 59.8997 58.5278 59.8282C58.5278 59.7562 66.8413 59.6982 77.0998 59.6982C87.3548 59.6982 95.6703 59.7567 95.6703 59.8282Z" fill="#263238"/>
<path d="M95.6703 64.0448C95.6703 64.1168 87.3548 64.1748 77.0998 64.1748C66.8413 64.1748 58.5278 64.1163 58.5278 64.0448C58.5278 63.9733 66.8413 63.9148 77.0998 63.9148C87.3548 63.9143 95.6703 63.9728 95.6703 64.0448Z" fill="#263238"/>
<path d="M53.679 96.6659C53.679 96.7379 44.889 96.7959 34.0485 96.7959C23.204 96.7959 14.416 96.7374 14.416 96.6659C14.416 96.5944 23.204 96.5359 34.0485 96.5359C44.889 96.5354 53.679 96.5939 53.679 96.6659Z" fill="#263238"/>
<path d="M53.679 100.881C53.679 100.953 44.889 101.011 34.0485 101.011C23.204 101.011 14.416 100.953 14.416 100.881C14.416 100.809 23.204 100.751 34.0485 100.751C44.889 100.751 53.679 100.81 53.679 100.881Z" fill="#263238"/>
<path d="M53.679 105.098C53.679 105.17 44.889 105.228 34.0485 105.228C23.204 105.228 14.416 105.169 14.416 105.098C14.416 105.026 23.204 104.968 34.0485 104.968C44.889 104.968 53.679 105.026 53.679 105.098Z" fill="#263238"/>
<path d="M53.679 109.313C53.679 109.385 44.889 109.443 34.0485 109.443C23.204 109.443 14.416 109.385 14.416 109.313C14.416 109.242 23.204 109.183 34.0485 109.183C44.889 109.183 53.679 109.242 53.679 109.313Z" fill="#263238"/>
<path d="M53.679 113.529C53.679 113.601 44.889 113.659 34.0485 113.659C23.204 113.659 14.416 113.601 14.416 113.529C14.416 113.458 23.204 113.399 34.0485 113.399C44.889 113.399 53.679 113.458 53.679 113.529Z" fill="#263238"/>
<path d="M53.679 117.745C53.679 117.817 44.889 117.875 34.0485 117.875C23.204 117.875 14.416 117.817 14.416 117.745C14.416 117.673 23.204 117.615 34.0485 117.615C44.889 117.615 53.679 117.674 53.679 117.745Z" fill="#263238"/>
<path d="M53.679 121.962C53.679 122.034 44.889 122.092 34.0485 122.092C23.204 122.092 14.416 122.033 14.416 121.962C14.416 121.89 23.204 121.832 34.0485 121.832C44.889 121.832 53.679 121.89 53.679 121.962Z" fill="#263238"/>
<path d="M53.679 126.177C53.679 126.249 44.889 126.307 34.0485 126.307C23.204 126.307 14.416 126.249 14.416 126.177C14.416 126.106 23.204 126.047 34.0485 126.047C44.889 126.047 53.679 126.106 53.679 126.177Z" fill="#263238"/>
<path d="M95.4318 68.3584H58.5278V104.062H95.4318V68.3584Z" fill="#FF725E"/>
<g opacity="0.3">
<path d="M61.3887 101.006L71.5977 82.6338L79.9477 94.3768L85.0212 88.1408L92.5702 101.006H61.3887Z" fill="black"/>
</g>
<g opacity="0.3">
<path d="M83.5049 79.0603C83.5049 80.5273 82.3158 81.7163 80.8488 81.7163C79.3818 81.7163 78.1934 80.5273 78.1934 79.0603C78.1934 77.5933 79.3823 76.4043 80.8488 76.4043C82.3158 76.4043 83.5049 77.5933 83.5049 79.0603Z" fill="black"/>
</g>
<g opacity="0.3">
<path d="M92.5701 101.106C92.5676 101.103 92.5646 101.054 92.5616 100.959C92.5596 100.852 92.5566 100.716 92.5536 100.543C92.5496 100.163 92.5436 99.6273 92.5361 98.9368C92.5271 97.5208 92.5136 95.4733 92.4971 92.8733C92.4781 87.6583 92.4516 80.2318 92.4196 71.3158L92.5706 71.4663C83.5401 71.4738 72.8346 71.4823 61.3926 71.4913C61.3506 71.5283 61.7226 71.1608 61.5651 71.3203V71.3283V71.3443V71.3763V71.4398V71.5673V71.8218V72.3303V73.3443C61.5651 74.0193 61.5646 74.6908 61.5646 75.3598C61.5641 76.6978 61.5641 78.0233 61.5636 79.3353C61.5621 81.9588 61.5606 84.5278 61.5591 87.0288C61.5531 92.0288 61.5476 96.7568 61.5426 101.105L61.3896 100.952C70.6961 100.985 78.4696 101.011 83.9346 101.03C86.6596 101.047 88.8081 101.061 90.2931 101.07C91.0191 101.078 91.5816 101.084 91.9801 101.088C92.1626 101.092 92.3056 101.095 92.4171 101.097C92.5156 101.1 92.5671 101.103 92.5701 101.106C92.5731 101.108 92.5271 101.111 92.4336 101.114C92.3261 101.116 92.1886 101.119 92.0131 101.123C91.6221 101.127 91.0691 101.133 90.3561 101.141C88.8791 101.15 86.7416 101.164 84.0321 101.181C78.5431 101.2 70.7361 101.227 61.3891 101.259L61.2361 101.259V101.105C61.2311 96.7563 61.2251 92.0288 61.2191 87.0288C61.2176 84.5278 61.2161 81.9588 61.2146 79.3353C61.2141 78.0233 61.2141 76.6978 61.2136 75.3598C61.2131 74.6908 61.2131 74.0188 61.2131 73.3443V72.3303L61.2126 71.8218V71.5673V71.4398V71.3763V71.3443V71.3283V71.3203C61.0561 71.4748 61.4261 71.1003 61.3916 71.1393C72.8336 71.1483 83.5391 71.1568 92.5696 71.1638L92.7211 71.1643L92.7206 71.3153C92.6886 80.2713 92.6621 87.7308 92.6436 92.9688C92.6271 95.5543 92.6136 97.5903 92.6041 98.9983C92.5966 99.6768 92.5906 100.203 92.5866 100.576C92.5831 100.743 92.5801 100.874 92.5781 100.976C92.5756 101.065 92.5731 101.109 92.5701 101.106Z" fill="black"/>
</g>
<path d="M96.7308 109.021C96.7308 109.093 87.9408 109.151 77.0998 109.151C66.2553 109.151 57.4673 109.092 57.4673 109.021C57.4673 108.949 66.2553 108.891 77.0998 108.891C87.9403 108.891 96.7308 108.949 96.7308 109.021Z" fill="#263238"/>
<path d="M96.7308 113.237C96.7308 113.309 87.9408 113.367 77.0998 113.367C66.2553 113.367 57.4673 113.308 57.4673 113.237C57.4673 113.165 66.2553 113.107 77.0998 113.107C87.9403 113.107 96.7308 113.165 96.7308 113.237Z" fill="#263238"/>
<path d="M96.7308 117.453C96.7308 117.525 87.9408 117.583 77.0998 117.583C66.2553 117.583 57.4673 117.524 57.4673 117.453C57.4673 117.381 66.2553 117.323 77.0998 117.323C87.9403 117.323 96.7308 117.381 96.7308 117.453Z" fill="#263238"/>
<path d="M96.7308 121.669C96.7308 121.741 87.9408 121.799 77.0998 121.799C66.2553 121.799 57.4673 121.74 57.4673 121.669C57.4673 121.597 66.2553 121.539 77.0998 121.539C87.9403 121.539 96.7308 121.597 96.7308 121.669Z" fill="#263238"/>
<path d="M96.7308 126.117C96.7308 126.189 87.9408 126.247 77.0998 126.247C66.2553 126.247 57.4673 126.189 57.4673 126.117C57.4673 126.046 66.2553 125.987 77.0998 125.987C87.9403 125.987 96.7308 126.045 96.7308 126.117Z" fill="#263238"/>
</svg>
