<svg width="182" height="194" viewBox="0 0 182 194" fill="none" xmlns="http://www.w3.org/2000/svg">
<path d="M130.398 0.254639C130.398 0.254639 113.899 14.8173 108.731 40.1966C105.337 56.8611 105.926 64.6839 105.926 64.6839C105.926 64.6839 98.2214 80.565 98.2214 86.4631L95.0489 87.3705L91.4234 100.529L89.6904 103.573L72.1532 120.964C72.1532 120.964 55.4514 112.436 35.7429 109.927C16.0343 107.419 0 108.923 0 108.923C0 108.923 15.7002 112.937 23.0489 115.612C30.3975 118.288 45.2628 124.642 45.2628 124.642C45.2628 124.642 50.9413 121.465 58.1237 120.796C65.3054 120.127 71.4851 121.8 71.4851 121.8L56.6204 136.348C56.6204 136.348 38.0807 131.331 24.5518 135.344C11.0235 139.358 1.66984 146.715 1.66984 146.715L33.4044 159.591L28.0593 165.277C28.0593 165.277 53.6135 240.024 54.1144 240.024C54.6156 240.024 77.1633 258.251 85.6818 263.1C94.1996 267.95 122.426 283.668 122.426 283.668L124.43 282.999L169.86 213.603C169.86 213.603 175.873 173.638 176.709 167.618C177.544 161.598 181.051 138.02 181.051 138.02L138.46 119.96C138.46 119.96 146.477 108.255 152.657 102.736C158.837 97.2182 174.203 86.3492 174.203 86.3492L146.143 79.9945L159.505 58.423L142.803 50.062C142.803 50.062 146.978 39.1925 151.154 32.1695C155.33 25.1466 163.847 13.1063 163.847 13.1063L130.398 0.254639Z" fill="#BDD7D2"/>
<path d="M72.6558 23.042L103.188 26.473C103.188 26.473 90.103 46.1244 88.2337 62.9681C86.3644 79.8119 90.103 94.7843 90.103 94.7843L60.5054 72.3256C60.5054 72.3256 57.3899 52.6748 72.6558 23.042Z" fill="#BDD7D2"/>
<path d="M26.5464 66.3991C26.5464 66.3991 43.993 64.5275 53.9629 70.1422C63.9328 75.7572 77.9526 92.6009 76.0832 111.628L50.2243 94.1603C50.2243 94.1603 51.4707 86.0508 42.7469 77.3166C34.0234 68.5828 26.5464 66.3991 26.5464 66.3991Z" fill="#BDD7D2"/>
<path d="M142.946 121.862C141.503 123.08 140.08 124.328 138.623 125.527C132.624 130.465 128.993 129.485 121.449 126.386C121.429 126.378 121.414 126.364 121.394 126.356C120.504 129.082 117.09 134.858 114.716 137.465C114.801 137.693 114.899 137.911 114.921 138.184C115.055 139.864 114.982 141.347 114.758 143.006C114.523 144.746 112.315 145.161 111.038 144.521C107.404 142.704 103.763 141.261 100.211 139.273C99.5536 138.905 98.8761 138.587 98.1943 138.282C97.8124 138.282 97.4323 138.229 97.0809 138.044C96.4812 137.73 95.9416 137.345 95.3995 136.961C94.75 136.626 94.1308 136.236 93.5347 135.8C92.9304 135.719 92.3353 135.558 91.6337 135.335C91.2179 135.203 90.9122 134.98 90.6624 134.722C90.3601 134.666 90.0654 134.603 89.7951 134.51C88.3928 134.031 87.3285 133.196 86.8831 131.744C86.6571 131.005 86.791 130.381 87.1217 129.902C86.5912 127.772 86.8932 125.324 86.9576 123.264C86.9628 123.11 87.0552 123.023 87.0857 122.886C87.0558 118.379 86.5305 112.905 88.5264 108.831C88.6073 107.544 89.5721 105.751 89.6322 104.476C89.6271 104.329 89.8998 103.367 89.8921 103.216L72.152 120.964C72.152 120.964 71.5764 120.671 70.527 120.182C70.4502 120.638 70.2558 121.059 70.0753 121.485C70.9471 121.662 71.484 121.8 71.484 121.8L56.9771 135.998C73.5388 142.155 76.7702 143.657 85.5791 147.615C89.581 149.413 92.8554 152.709 88.6969 154.964C81.9005 158.65 66.8826 163.139 59.2238 159.768C58.4691 159.436 57.7519 158.95 57.0387 158.454C56.8465 158.46 56.655 158.464 56.4628 158.466C57.1705 159.211 57.8221 159.993 58.3608 160.844C60.3451 163.976 58.2378 167.464 55.1962 168.631C48.3833 171.243 40.9928 162.315 33.4035 159.592L28.0591 165.277C28.0591 165.277 53.6133 240.024 54.1139 240.024C54.6151 240.024 77.1634 258.251 85.6812 263.1C94.1991 267.95 122.426 283.668 122.426 283.668L124.43 282.999L169.86 213.603C169.86 213.603 175.873 173.638 176.707 167.618C177.543 161.598 181.05 138.02 181.05 138.02L142.946 121.862Z" fill="#F4CB78"/>
<path d="M86.897 142.705L88.8847 140.476L121.528 154.268L118.896 157.697L86.897 142.705Z" fill="#BDD7D2"/>
<path d="M120.502 214.926C114.749 211.508 108.724 208.493 102.842 205.303C96.8985 202.08 90.9543 198.857 85.0104 195.633C73.0257 189.134 61.0333 182.65 49.0382 176.17C42.2145 172.484 35.3552 168.865 28.48 165.278C28.4364 165.255 28.3864 165.323 28.4337 165.349C52.0926 178.845 76.0533 191.813 99.9233 204.929C106.562 208.576 113.122 212.472 119.898 215.857C120.469 216.142 121.107 215.286 120.502 214.926Z" fill="#4B9583"/>
<path d="M90.9119 101.358C88.7766 103.137 73.7276 118.603 71.7729 120.578C69.6775 122.695 67.5824 124.811 65.4876 126.928C62.2389 130.209 58.9944 133.495 55.7505 136.781C55.8933 136.758 56.0357 136.74 56.1763 136.732C56.4667 136.682 56.7587 136.699 57.0616 136.781C59.9971 133.856 62.9338 130.933 65.8662 128.005C67.8975 125.977 69.9285 123.948 71.9598 121.92C74.1208 119.762 89.6987 104.387 91.6382 102.029C91.9967 101.591 91.3219 101.017 90.9119 101.358Z" fill="#4B9583"/>
<path d="M33.278 159.426C31.7622 160.988 30.2956 162.586 28.9387 164.252C28.8811 164.323 28.9893 164.415 29.0558 164.36C30.7638 162.951 32.397 161.425 33.9943 159.853C33.7591 159.704 33.5196 159.564 33.278 159.426Z" fill="#4B9583"/>
<path d="M178.946 140.311C176.813 142.588 175.067 145.273 173.18 147.744C171.206 150.328 169.234 152.912 167.261 155.496C163.456 160.479 159.651 165.462 155.846 170.444C148.165 180.502 140.505 190.574 132.895 200.682C128.567 206.431 124.358 212.266 120.014 218.003C119.981 218.046 120.054 218.092 120.085 218.053C135.735 197.854 151.527 177.763 167.095 157.502C169.217 154.74 171.339 151.977 173.462 149.215C175.59 146.445 178.007 143.754 179.838 140.787C180.136 140.303 179.275 139.959 178.946 140.311Z" fill="#4B9583"/>
<path d="M180.787 136.904C166.673 130.983 152.497 125.199 138.306 119.456C138.091 119.83 137.855 120.184 137.601 120.527C145.44 123.773 153.283 127.004 161.098 130.282C167.449 132.947 173.806 135.602 180.185 138.201C181.085 138.568 181.729 137.298 180.787 136.904Z" fill="#4B9583"/>
<path d="M121.794 154.151C119.344 152.763 116.577 151.788 113.994 150.669C111.188 149.452 108.378 148.244 105.571 147.032C100.039 144.644 94.5012 142.143 88.8257 140.113C88.7726 140.094 88.7391 140.161 88.7912 140.188C94.0674 142.92 99.5903 145.238 105.029 147.625C107.682 148.789 110.334 149.953 112.987 151.117C115.752 152.331 118.549 153.804 121.428 154.716C121.767 154.824 122.191 154.376 121.794 154.151Z" fill="#4B9583"/>
<path d="M121.253 154.51C120.649 155.054 120.148 155.704 119.633 156.332C119.297 156.743 118.933 157.141 118.627 157.576C113.316 155.006 108.009 152.428 102.692 149.868C97.6736 147.453 92.6812 144.748 87.4853 142.708C88.0304 142.047 88.506 141.216 88.8842 140.475C88.9651 140.316 88.7259 140.239 88.6253 140.333C87.9679 140.945 87.2626 141.668 86.7547 142.427C86.5872 142.364 86.4207 142.299 86.2526 142.237C86.1534 142.2 86.0397 142.332 86.148 142.398C86.2993 142.491 86.4518 142.58 86.604 142.671C86.4942 142.961 86.9356 143.158 87.1888 143.019C91.9808 145.819 97.1712 148.037 102.152 150.457C107.52 153.064 112.896 155.654 118.27 158.25C118.277 158.483 118.613 158.597 118.834 158.494C119.079 158.52 119.258 158.303 119.245 158.086C119.664 157.591 120.003 157.015 120.368 156.487C120.776 155.895 121.203 155.303 121.513 154.653C121.59 154.49 121.356 154.418 121.253 154.51Z" fill="#4B9583"/>
<path d="M55.3063 240.365C50.7098 227.882 46.0984 215.404 41.4772 202.93C39.2089 196.806 36.9384 190.684 34.6597 184.564C33.4785 181.39 32.3038 178.214 31.115 175.044C29.965 171.975 29.034 168.417 27.3409 165.605C27.2345 165.428 26.8757 165.445 26.9157 165.701C27.3925 168.731 28.8933 171.807 29.9299 174.696C31.0735 177.883 32.2452 181.059 33.4038 184.241C35.6788 190.49 37.9615 196.738 40.2472 202.983C44.8599 215.589 49.4817 228.191 54.1193 240.787C54.375 241.479 55.582 241.114 55.3063 240.365Z" fill="#4B9583"/>
<path d="M181.079 139.227C181.105 139.026 180.776 138.981 180.738 139.179C176.24 162.818 172.626 186.639 168.738 210.385C168.599 211.236 170.06 211.442 170.195 210.587C173.932 186.827 177.954 163.078 181.079 139.227Z" fill="#4B9583"/>
<path d="M118.229 225.466C95.7669 212.255 73.2162 199.195 50.7317 186.023C47.5058 184.133 44.272 182.259 41.0357 180.388C37.8488 178.544 34.6028 176.419 31.1878 175.058C31.1326 175.035 31.0725 175.103 31.1268 175.147C33.627 177.197 36.6134 178.762 39.3628 180.436C42.0125 182.049 44.6804 183.633 47.3496 185.211C53.0076 188.557 58.6706 191.896 64.331 195.237C75.652 201.921 86.9971 208.562 98.2994 215.279C104.732 219.101 111.13 222.984 117.579 226.777C118.42 227.271 119.099 225.977 118.229 225.466Z" fill="#4B9583"/>
<path d="M178.905 151.939C162.551 170.563 147.058 189.92 132.512 209.992C128.54 215.472 124.492 220.968 120.973 226.755C120.943 226.804 121.03 226.844 121.062 226.804C128.636 217.143 135.536 206.939 143.006 197.19C150.477 187.439 158.152 177.838 166.03 168.412C170.513 163.049 175.066 157.745 179.683 152.497C180.086 152.039 179.278 151.516 178.905 151.939Z" fill="#4B9583"/>
<path d="M90.0589 141.761C89.9927 141.596 89.918 141.434 89.8491 141.276C89.6709 140.867 89.4851 140.387 89.1651 140.072C89.1404 140.048 89.073 140.044 89.0721 140.092C89.066 140.486 89.2527 140.898 89.393 141.261C89.4888 141.508 89.5895 141.779 89.7179 142.027C89.6331 142.149 89.5635 142.284 89.4885 142.406C89.3225 142.677 89.167 142.953 88.9614 143.195C88.9489 143.21 88.9745 143.226 88.9864 143.213C89.2082 142.974 89.4717 142.78 89.7261 142.576C89.8003 142.517 89.8811 142.459 89.9601 142.398C89.9857 142.429 90.0068 142.465 90.0345 142.493C90.0821 142.542 90.2203 142.548 90.2203 142.452C90.2197 142.363 90.2063 142.276 90.1892 142.189C90.2279 142.143 90.2627 142.094 90.2877 142.04C90.3634 141.877 90.2069 141.757 90.0589 141.761Z" fill="#4B9583"/>
<path d="M88.5343 143.012C88.5144 143.009 88.51 143.037 88.5305 143.04C88.5505 143.043 88.5548 143.015 88.5343 143.012Z" fill="#4B9583"/>
<path d="M121.055 155.524C118.745 154.195 116.142 153.27 113.703 152.194C111.07 151.032 108.425 149.897 105.784 148.756C100.523 146.482 95.2653 143.94 89.8147 142.157C89.7668 142.142 89.7076 142.206 89.7632 142.237C94.5723 144.937 99.788 147.009 104.821 149.251C107.45 150.422 110.074 151.603 112.711 152.755C115.316 153.893 117.943 155.288 120.653 156.145C121.026 156.262 121.49 155.774 121.055 155.524Z" fill="#4B9583"/>
<path d="M106.016 64.3774C102.218 71.7601 99.3619 79.6263 97.6963 87.6968C97.9638 87.7521 98.2289 87.8132 98.4928 87.8804C100.128 80.4292 102.432 73.1953 105.727 66.2343C105.868 65.9378 106.013 65.6434 106.157 65.3474C106.099 65.0249 106.051 64.7015 106.016 64.3774Z" fill="#4B9583"/>
<path d="M130.117 108.015C125.784 105.964 121.317 104.149 116.877 102.313C116.739 102.599 116.6 102.883 116.458 103.167C120.841 105.15 125.227 107.168 129.694 108.926C130.331 109.177 130.762 108.321 130.117 108.015Z" fill="#4B9583"/>
<path d="M161.011 55.8196C159.584 57.5366 158.481 59.5728 157.272 61.4468L153.32 67.57C150.686 71.6515 148.055 75.7358 145.428 79.8216C142.801 83.9064 140.165 87.9849 137.556 92.0811C134.962 96.1531 132.172 100.16 129.955 104.45C129.945 104.47 129.978 104.485 129.991 104.469C133.014 100.681 135.554 96.4912 138.229 92.45C140.912 88.3978 143.568 84.3273 146.234 80.2632C148.9 76.1991 151.563 72.1328 154.222 68.0641C155.491 66.1223 156.76 64.1805 158.029 62.2387C159.304 60.2872 160.796 58.3609 161.825 56.2661C162.054 55.797 161.311 55.4583 161.011 55.8196Z" fill="#4B9583"/>
<path d="M159.044 57.4708C156.379 55.8371 153.341 54.6873 150.512 53.356C148.601 52.4571 146.69 51.5562 144.778 50.6592C144.641 51.0061 144.484 51.3396 144.31 51.6609C146.012 52.4834 147.717 53.3037 149.421 54.125C152.387 55.5534 155.349 57.2881 158.45 58.3852C159.01 58.5834 159.662 57.8498 159.044 57.4708Z" fill="#4B9583"/>
<path d="M23.3925 65.0168C23.3422 65.0036 23.3187 65.0742 23.3702 65.0894C36.9467 69.1261 47.614 80.4501 50.7743 94.2773C50.839 94.5592 51.32 94.4523 51.2572 94.1576C48.3025 80.2528 37.1508 68.5522 23.3925 65.0168Z" fill="#4B9583"/>
<path d="M75.903 111.389C77.496 101.431 73.8308 90.3692 67.9842 82.3757C61.7658 73.8743 52.4158 68.1157 42.1152 66.075C36.4812 64.959 30.2201 64.748 24.6402 66.2845C24.2158 66.4015 24.4187 66.9292 24.8174 66.8645C30.0401 66.0139 35.0896 65.6254 40.3505 66.4681C45.3563 67.2701 50.216 68.9587 54.6362 71.445C63.5891 76.4816 70.259 84.9146 73.5382 94.6224C75.3814 100.08 75.8045 105.584 75.7807 111.295C71.8507 108.245 67.501 105.64 63.3777 102.865C58.9588 99.8908 54.5108 96.9634 50.0428 94.0638C50.0162 94.0464 49.9757 94.087 50.005 94.1081C54.1582 97.0862 58.3267 100.042 62.529 102.95C66.8836 105.964 71.1576 109.284 75.7221 111.97C75.9881 112.126 76.3761 111.756 76.0952 111.535C76.032 111.485 75.9661 111.438 75.903 111.389Z" fill="#4B9583"/>
<path d="M175.702 86.5428C175.339 86.4402 174.972 86.3476 174.607 86.2493C174.786 86.1057 174.966 85.9634 175.142 85.8156C175.44 85.5673 175.03 85.1635 174.733 85.3382C174.369 85.5529 174.009 85.7731 173.647 85.9918C167.505 84.3933 161.184 83.2758 154.996 81.9179C151.924 81.2436 148.85 80.5216 145.77 79.8237C145.666 80.0116 145.557 80.1973 145.44 80.3808C148.574 81.0753 151.715 81.7432 154.832 82.4555C160.757 83.8097 166.698 85.4164 172.679 86.5828C155.329 97.3177 140.541 112.928 131.61 131.335C131.596 131.363 131.641 131.385 131.655 131.358C141.551 113.166 155.557 97.7334 173.251 86.9514C173.351 87.0498 173.534 87.0916 173.671 86.985C173.746 86.9264 173.821 86.8677 173.897 86.8088C174.44 86.9093 174.985 87.0128 175.529 87.1047C175.916 87.1698 176.112 86.6582 175.702 86.5428Z" fill="#4B9583"/>
<path d="M136.485 130.778C128.9 127.651 121.111 124.881 113.333 122.185C113.336 122.349 113.335 122.516 113.332 122.684C120.871 125.79 128.466 128.847 136.144 131.508C136.583 131.661 136.957 130.973 136.485 130.778Z" fill="#4B9583"/>
<path d="M102.194 27.4203C102.215 27.3876 102.16 27.3626 102.14 27.3919C91.766 42.4136 86.5838 60.7263 87.3891 78.9655C87.6139 84.0484 88.1508 89.3623 89.5482 94.2715C89.6419 94.5998 90.1773 94.4746 90.1117 94.1319C89.008 88.3474 88.0077 82.6732 87.8677 76.7656C87.7292 70.9139 88.1993 65.0455 89.2606 59.29C91.3569 47.9259 95.7426 37.0072 102.194 27.4203Z" fill="#4B9583"/>
<path d="M89.4961 94.6695C87.2927 92.5307 84.7395 90.6857 82.3507 88.7577C79.9374 86.8098 77.4955 84.8976 75.0628 82.9741C72.6279 81.0491 70.1838 79.136 67.7404 77.2217C65.4696 75.443 63.2482 73.3921 60.788 71.8852C60.4204 71.6598 59.9567 72.1408 60.2886 72.4679C62.4673 74.6125 65.1782 76.3613 67.5942 78.2353C70.0508 80.1405 72.508 82.0435 74.9728 83.9374C79.7001 87.5696 84.3542 91.6087 89.4202 94.7581C89.4757 94.7923 89.5468 94.7187 89.4961 94.6695Z" fill="#4B9583"/>
<path d="M70.8562 27.0707C68.8816 30.1783 67.5397 33.8902 66.2685 37.3295C64.9092 41.0088 63.7924 44.7778 62.9109 48.6001C61.2008 56.0176 60.184 63.8141 60.7612 71.4287C60.7645 71.4714 60.8323 71.472 60.8341 71.4287C61.2157 63.6822 61.8246 56.0359 63.632 48.4684C64.4965 44.8478 65.5782 41.28 66.8579 37.7852C68.1754 34.1874 69.9816 30.8212 71.3805 27.2701C71.4971 26.9733 71.0053 26.8355 70.8562 27.0707Z" fill="#4B9583"/>
<path d="M102.834 26.026C97.8593 25.2683 92.7391 25.0842 87.7244 24.6758C82.5032 24.2507 77.2701 23.9468 72.0507 23.514C72.0171 23.5113 72.0181 23.5577 72.0507 23.5611C77.1697 24.0638 82.2784 24.6944 87.3983 25.2045C92.4838 25.7112 97.6366 26.4674 102.746 26.6167C103.102 26.6274 103.213 26.0841 102.834 26.026Z" fill="#4B9583"/>
<path d="M132.416 86.8692C130.379 85.6674 128.054 84.8459 125.886 83.9031C123.688 82.9471 121.49 81.9915 119.292 81.0356C115.281 79.2914 111.266 77.3563 107.136 75.8952C106.728 70.9216 106.16 66.0377 106.267 61.0195C106.383 55.607 106.972 50.2083 108.007 44.8953C110.066 34.322 113.898 24.0925 119.341 14.7983C122.381 9.60811 126.045 4.99853 129.719 0.264046C129.727 0.254884 129.71 0.245416 129.703 0.25244C125.916 3.98151 122.76 8.51535 119.961 13.0131C117.171 17.4947 114.765 22.2158 112.757 27.0984C108.64 37.1043 106.209 47.8053 105.646 58.6144C105.335 64.5773 105.297 70.9683 106.582 76.8279C106.651 77.1403 107.233 77.0835 107.207 76.7519C107.191 76.5408 107.172 76.3316 107.155 76.1212C111.128 78.2847 115.392 80.0244 119.499 81.902C123.622 83.7867 127.787 86.1555 132.107 87.5304C132.522 87.663 132.805 87.0989 132.416 86.8692Z" fill="#4B9583"/>
<path d="M162.884 13.5068C154.77 23.4788 148.328 35.3275 143.549 47.5602C138.716 59.9342 135.267 73.3754 134.498 86.8364C134.488 87.012 134.745 87.0013 134.767 86.8364C136.526 73.4813 139.346 60.5136 144.253 48.0836C149.159 35.6601 155.805 24.5242 163.606 14.0529C163.927 13.6225 163.193 13.1281 162.884 13.5068Z" fill="#4B9583"/>
<path d="M164.043 12.6075C158.644 10.32 153.025 8.45392 147.525 6.42324C141.844 4.32568 136.178 2.18413 130.438 0.252709C130.386 0.2353 130.342 0.315012 130.397 0.338529C135.96 2.69783 141.607 4.84884 147.235 7.04384C152.694 9.17255 158.133 11.5019 163.685 13.372C164.146 13.5268 164.536 12.8164 164.043 12.6075Z" fill="#4B9583"/>
<path d="M109.459 143.222C107.658 142.057 105.547 141.282 103.602 140.384C101.726 139.518 99.8461 138.658 97.963 137.805C94.5974 136.28 91.2413 134.703 87.7997 133.354C87.1801 126.7 86.7455 120.3 87.8296 113.653C88.8893 107.154 90.9387 100.69 93.9306 94.8175C93.9361 94.8062 93.9184 94.7974 93.9126 94.808C90.5113 100.712 88.1466 107.006 87.0206 113.748C85.9807 119.978 85.6143 126.832 87.0234 133.052C86.962 133.029 86.901 133.004 86.8397 132.981C86.7921 132.963 86.758 133.032 86.8034 133.058C86.8873 133.105 86.9718 133.151 87.0557 133.198C87.0771 133.289 87.0947 133.383 87.117 133.475C87.1811 133.743 87.5892 133.761 87.7427 133.577C91.1314 135.434 94.6532 137.057 98.1317 138.733C101.709 140.456 105.382 142.646 109.174 143.831C109.566 143.954 109.802 143.444 109.459 143.222Z" fill="#4B9583"/>
<path d="M120.782 89.595C120.459 90.189 120.19 90.82 119.947 91.4674C116 90.3667 111.762 89.8946 107.738 89.1396C103.552 88.3538 99.3535 87.6477 95.164 86.8912C95.1264 86.8848 95.1072 86.9367 95.1472 86.9455C99.3953 87.8758 103.633 88.8565 107.89 89.755C111.776 90.5756 115.735 91.7103 119.68 92.2157C119.297 93.3518 118.978 94.52 118.633 95.6308C117.946 97.8386 117.314 100.064 116.732 102.302C115.541 106.882 114.56 111.516 113.816 116.189C112.382 125.2 111.532 134.491 112.144 143.615C112.148 143.67 112.237 143.67 112.238 143.615C112.585 134.369 113.076 125.208 114.667 116.076C115.425 111.728 116.355 107.406 117.475 103.137C118.062 100.899 118.701 98.6755 119.388 96.4673C120.062 94.2983 121.067 92.0896 121.488 89.8631C121.56 89.4753 120.98 89.23 120.782 89.595Z" fill="#4B9583"/>
<path d="M48.9948 126.33C41.7194 122.045 33.7506 118.68 25.8019 115.872C17.9106 113.085 9.57546 110.537 1.23726 109.566C1.16222 109.558 1.14697 109.668 1.21957 109.686C9.32563 111.794 17.403 113.624 25.301 116.48C33.3583 119.395 40.9525 123.09 48.5579 127.004C49.017 127.24 49.4798 126.616 48.9948 126.33Z" fill="#4B9583"/>
<path d="M83.8422 128.204C84.0478 128.09 84.2125 127.924 84.3062 127.686C84.394 127.461 84.3809 127.216 84.3135 126.972C81.5309 125.123 78.474 123.646 75.3057 122.563C58.349 113.653 39.4235 108.599 20.2597 107.92C13.8805 107.694 7.49829 108.019 1.17219 108.856C1.10294 108.865 1.12002 108.972 1.18835 108.967C23.7943 107.027 46.6836 110.571 67.408 119.916C68.278 120.308 69.1413 120.714 70.0015 121.125C69.587 121.041 69.1721 120.962 68.7576 120.891C61.4687 119.653 52.7233 120.059 46.1287 123.76C46.0625 123.797 46.111 123.894 46.1812 123.871C49.9272 122.649 53.4938 121.494 57.4482 121.116C61.2305 120.755 65.0536 120.919 68.7887 121.62C70.3194 121.908 71.8089 122.287 73.2613 122.743C73.66 122.948 74.0535 123.163 74.4504 123.372C76.9682 124.252 79.3912 125.429 81.6425 126.86C82.4149 127.245 83.1501 127.693 83.8422 128.204Z" fill="#4B9583"/>
<path d="M95.5289 149.773C87.19 146.8 77.074 147.8 68.8734 150.68C64.7357 152.133 60.8174 154.162 57.2645 156.738C53.991 159.111 50.5275 162.096 48.3226 165.587C44.9018 163.883 41.1119 162.666 37.5891 161.235C33.6998 159.655 29.8101 158.074 25.9207 156.494C18.1389 153.333 10.3486 150.193 2.55675 147.056C2.49452 147.031 2.42985 147.116 2.4991 147.145C10.3196 150.444 18.1417 153.739 25.9729 157.012L37.5705 161.861C40.9834 163.288 44.4225 165.029 47.9471 166.211C47.933 166.235 47.9172 166.26 47.9035 166.284C47.8638 166.353 47.9657 166.42 48.0178 166.364C48.049 166.33 48.0798 166.297 48.1103 166.264C48.3998 166.359 48.688 166.459 48.9784 166.546C49.2914 166.64 49.5275 166.206 49.2158 166.039C49.0157 165.932 48.8085 165.834 48.6054 165.73C51.367 162.742 53.9797 159.836 57.3386 157.435C60.9934 154.822 65.0685 152.765 69.3267 151.34C73.4607 149.957 77.7851 149.163 82.1421 149.01C86.6684 148.851 90.8848 149.634 95.2738 150.607C95.8586 150.737 96.1085 149.98 95.5289 149.773Z" fill="#4B9583"/>
<path d="M67.9633 140.439C52.6233 132.027 33.0584 131.491 16.8521 137.596C12.3529 139.291 8.04839 141.509 4.16664 144.357C4.06567 144.43 4.20386 144.57 4.29934 144.511C13.7891 138.657 24.3206 135.05 35.49 134.449C46.6752 133.847 57.433 136.304 67.4426 141.242C67.9917 141.513 68.5542 140.763 67.9633 140.439Z" fill="#4B9583"/>
<path d="M92.2712 149.259C90.191 148.086 87.7305 147.397 85.5031 146.537C83.5001 145.764 81.4907 145.008 79.4835 144.245C75.0502 142.563 70.6274 140.748 66.0833 139.384C66.0516 139.375 66.0266 139.42 66.0593 139.436C70.297 141.533 74.7571 143.212 79.1321 144.996C81.28 145.873 83.4266 146.752 85.5796 147.615C87.6448 148.442 89.7426 149.513 91.9054 150.041C92.3904 150.159 92.7528 149.531 92.2712 149.259Z" fill="#4B9583"/>
<path d="M155.014 181.028C155.014 180.996 154.959 180.988 154.953 181.021C154.862 181.488 154.767 181.955 154.683 182.424C154.607 182.84 154.486 183.277 154.531 183.7C154.535 183.739 154.552 183.77 154.572 183.798C154.429 183.731 154.233 183.74 154.126 183.89C152.095 186.728 150.138 189.62 148.166 192.499C148.147 192.526 148.193 192.546 148.211 192.523C150.384 189.755 152.575 186.999 154.693 184.189C154.783 184.07 154.759 183.957 154.682 183.876C154.787 183.911 154.913 183.879 154.95 183.751C155.19 182.926 155.026 181.879 155.014 181.028Z" fill="#4B9583"/>
<path d="M147.432 191.05C147.421 191.014 147.362 191.021 147.36 191.059C147.338 191.66 147.256 192.302 147.434 192.886C147.491 193.073 147.793 193.036 147.803 192.841C147.835 192.233 147.597 191.626 147.432 191.05Z" fill="#4B9583"/>
<path d="M90.1899 142.189L88.9624 143.196L118.27 158.25L120.654 156.144L90.1899 142.189Z" fill="#4B9583"/>
<path d="M107.206 76.7518L133.683 90.6355C133.683 90.6355 145.953 61.5222 155.183 56.413L143.451 50.1682C143.451 50.1682 136.773 66.0206 135.654 76.1288C134.534 86.2373 134.497 87.5503 134.497 87.5503L132.415 86.8692L107.154 76.1212L107.206 76.7518Z" fill="#4B9583"/>
<path d="M88.5176 136.116L114.721 148.379L125.017 128.862L136.703 133.499L148.161 123.453L138.306 119.456L132.601 129.652L113.333 122.184C113.333 122.184 112.346 136.296 112.035 141.637C111.725 146.977 112.145 143.615 112.145 143.615L89.7414 134.638L88.5176 136.116Z" fill="#4B9583"/>
<path d="M115.52 122.658C115.52 122.658 118.909 110.679 122.366 107.597L130.436 110.74C130.436 110.74 148.21 82.5351 160.469 83.4749L146.233 80.2632L128.166 107.112L117.475 103.138C117.475 103.138 113.784 115.65 113.333 122.185L115.52 122.658Z" fill="#4B9583"/>
<path d="M120.006 94.4417L123.447 95.5081L120.006 103.606L116.457 103.167L120.006 94.4417Z" fill="#4B9583"/>
<path d="M103.817 152.33C103.817 152.33 86.2457 161.903 82.1242 166.212C78.0021 170.521 66.0448 185.362 66.0448 185.362L45.6096 174.325L34.7715 168.573L38.7121 162.349L47.9478 166.211C47.9478 166.211 55.7125 155.574 66.0448 152.581C76.3765 149.588 81.5062 147.95 88.5177 148.862L85.5035 146.537L79.1326 144.997L72.9264 142.49L80.5971 139.013L86.1045 141.15L84.3681 142.488L103.817 152.33Z" fill="#4B9583"/>
</svg>
