<svg width="265" height="265" viewBox="0 0 265 265" fill="none" xmlns="http://www.w3.org/2000/svg">
<circle cx="132.321" cy="132.321" r="125.655" stroke="#fff" stroke-width="13.3333"/>
<path fill="#fff" d="M72.7769 188.393C89.246 176.514 108.17 158.173 120.325 142.05C132.806 125.494 142.297 107.535 146.401 87.1699C147.929 79.5862 149.029 70.1933 146.304 62.6153C144.8 58.4305 141.47 55.8796 137.178 58.2452C126.916 63.9008 123.079 83.5031 120.808 92.6024C114.213 119.033 108.847 147.437 109.533 174.813C109.76 183.875 111.758 196.07 118.925 202.845C132.612 215.782 151.9 184.716 156.348 175.851C161.006 166.569 164.727 156.376 166.658 146.154C167.254 142.997 169.016 134.954 165.282 132.295C158.864 127.726 147.919 140.755 149.685 146.83C153.609 160.338 183.928 144.443 190.102 142.339" stroke="white" stroke-width="10" stroke-linecap="round"/>
</svg>
