<svg width="24" height="24" viewBox="0 0 24 24" fill="none" xmlns="http://www.w3.org/2000/svg">
<mask id="mask0_87_620" style="mask-type:alpha" maskUnits="userSpaceOnUse" x="0" y="0" width="24" height="24">
<rect width="24" height="24" fill="#fff"/>
</mask>
<g mask="url(#mask0_87_620)">
<path d="M4.61538 19C4.15513 19 3.77083 18.8458 3.4625 18.5375C3.15417 18.2292 3 17.8449 3 17.3846V6.61537C3 6.15512 3.15417 5.77083 3.4625 5.4625C3.77083 5.15417 4.15513 5 4.61538 5H9.59615L11.5962 7H19.3846C19.8449 7 20.2292 7.15417 20.5375 7.4625C20.8458 7.77083 21 8.15512 21 8.61537V10.9731C20.8372 10.9167 20.6715 10.8805 20.5029 10.8644C20.3343 10.8484 20.1667 10.8461 20 10.8577V8.61537C20 8.46154 19.9359 8.32052 19.8077 8.1923C19.6795 8.0641 19.5385 8 19.3846 8H11.1942L9.19423 6H4.61538C4.43589 6 4.28846 6.05769 4.17308 6.17307C4.05769 6.28846 4 6.43589 4 6.61537V17.3846C4 17.5385 4.0641 17.6795 4.1923 17.8077C4.32052 17.9359 4.46154 18 4.61538 18H11.8692L11.8462 18.0231V19H4.61538ZM14.2308 21V18.7904L19.5635 13.4827C19.6622 13.384 19.7648 13.3173 19.8712 13.2827C19.9776 13.2481 20.084 13.2308 20.1904 13.2308C20.3006 13.2308 20.4122 13.2523 20.525 13.2952C20.6378 13.3382 20.7372 13.4026 20.8231 13.4885L21.7481 14.4327C21.8301 14.5314 21.8926 14.634 21.9356 14.7404C21.9785 14.8468 22 14.9532 22 15.0596C22 15.166 21.9795 15.2734 21.9385 15.3817C21.8974 15.4901 21.834 15.5936 21.7481 15.6923L16.4404 21H14.2308ZM15.1154 20.1154H16.0654L19.5327 16.6423L19.0635 16.1673L18.6077 15.6789L15.1154 19.1654V20.1154ZM19.0635 16.1673L18.6077 15.6789L19.5327 16.6423L19.0635 16.1673Z" fill="#81a5a0"/>
</g>
</svg>
