<svg width="20" height="20" viewBox="0 0 20 20" fill="none" xmlns="http://www.w3.org/2000/svg">
<mask id="mask0_229_485" style="mask-type:alpha" maskUnits="userSpaceOnUse" x="0" y="0" width="20" height="20">
<rect x="0.399902" y="0.399994" width="19.2" height="19.2" fill="#D9D9D9"/>
</mask>
<g mask="url(#mask0_229_485)">
<path d="M9.6001 16.1708V10.2292L4.4001 7.21846V12.8831C4.4001 12.9651 4.42061 13.0421 4.46164 13.1138C4.50266 13.1856 4.5642 13.2472 4.64626 13.2985L9.6001 16.1708ZM10.4001 16.1708L15.3539 13.2985C15.436 13.2472 15.4975 13.1856 15.5386 13.1138C15.5796 13.0421 15.6001 12.9651 15.6001 12.8831V7.21846L10.4001 10.2292V16.1708ZM10.0001 9.54154L15.1401 6.57076L10.2463 3.73846C10.1642 3.68718 10.0822 3.66154 10.0001 3.66154C9.91805 3.66154 9.83599 3.68718 9.75394 3.73846L4.8601 6.57076L10.0001 9.54154ZM4.24624 14.0062C4.0442 13.8903 3.886 13.7328 3.77164 13.5338C3.65728 13.3349 3.6001 13.1195 3.6001 12.8877V7.1123C3.6001 6.88052 3.65728 6.66514 3.77164 6.46616C3.886 6.26718 4.0442 6.10974 4.24624 5.99384L9.35394 3.05076C9.55599 2.93487 9.77138 2.87692 10.0001 2.87692C10.2288 2.87692 10.4442 2.93487 10.6463 3.05076L15.754 5.99384C15.956 6.10974 16.1142 6.26718 16.2286 6.46616C16.3429 6.66514 16.4001 6.88052 16.4001 7.1123V12.8877C16.4001 13.1195 16.3429 13.3349 16.2286 13.5338C16.1142 13.7328 15.956 13.8903 15.754 14.0062L10.6463 16.9492C10.4442 17.0651 10.2288 17.1231 10.0001 17.1231C9.77138 17.1231 9.55599 17.0651 9.35394 16.9492L4.24624 14.0062Z" fill="#81a5a0"/>
</g>
</svg>
