<svg width="200" height="200" viewBox="0 0 200 200" fill="none" xmlns="http://www.w3.org/2000/svg">
<circle cx="100" cy="100" r="93.3333" stroke="#222326" stroke-width="13.3333"/>
<path d="M55 142.375C67.4463 133.398 81.748 119.537 90.934 107.352C100.366 94.8406 107.539 81.2685 110.64 65.8775C111.795 60.1462 112.626 53.0477 110.567 47.3207C109.43 44.1581 106.914 42.2303 103.67 44.0181C95.915 48.2922 93.0148 63.1063 91.299 69.983C86.3151 89.9572 82.2599 111.423 82.7778 132.113C82.9492 138.961 84.4594 148.177 89.8757 153.297C100.22 163.074 114.796 139.597 118.158 132.897C121.678 125.882 124.49 118.179 125.949 110.454C126.4 108.068 127.731 101.99 124.909 99.9804C120.059 96.527 111.788 106.374 113.122 110.965C116.088 121.173 139.001 109.161 143.667 107.571" stroke="#222326" stroke-width="10" stroke-linecap="round"/>
</svg>
