<svg width="24" height="16" viewBox="0 0 24 16" fill="none" xmlns="http://www.w3.org/2000/svg">
<path id="Vector" fillRule="evenodd" clipRule="evenodd" d="M4.77395 12.1357C4.82019 12.2211 4.83636 12.2791 4.83636 12.2791H5.82127C6.01685 12.2791 6.18182 12.1119 6.18182 11.9058V2.60465C6.18182 2.36415 6.15952 2.12897 6.11692 1.90117C6.14581 1.87436 6.16762 1.86047 6.18182 1.86047H23.2727C23.6744 1.86047 24 2.19365 24 2.60465V15.2558C24 15.6668 23.6744 16 23.2727 16H2.54545C1.13964 16 0 14.8339 0 13.3953C0 11.9568 1.13964 10.7907 2.54545 10.7907C3.50473 10.7907 4.34006 11.3337 4.77395 12.1357ZM5.09091 2.60465V10.7381C4.435 10.0801 3.53653 9.67442 2.54545 9.67442C1.55438 9.67442 0.655909 10.0801 0 10.7381V2.60465C0 1.16614 1.13964 0 2.54545 0C3.95127 0 5.09091 1.16614 5.09091 2.60465ZM5.70135 11.4948C5.69996 11.4912 5.69882 11.4883 5.69775 11.4856L5.70135 11.4948ZM17.9247 6.96078C17.7827 7.10609 17.7827 7.34169 17.9247 7.487L19.3351 8.93023L17.9247 10.3735C17.7827 10.5188 17.7827 10.7544 17.9247 10.8997L18.4389 11.4259C18.581 11.5712 18.8112 11.5712 18.9532 11.4259L20.8779 9.45645C21.1619 9.16583 21.1619 8.69464 20.8779 8.40401L18.9532 6.43457C18.8112 6.28926 18.581 6.28926 18.4389 6.43457L17.9247 6.96078ZM11.8935 10.8997C12.0355 10.7544 12.0355 10.5188 11.8935 10.3735L10.4831 8.93023L11.8935 7.487C12.0355 7.34169 12.0355 7.10609 11.8935 6.96078L11.3792 6.43457C11.2372 6.28926 11.007 6.28926 10.865 6.43457L8.9403 8.40401C8.65628 8.69464 8.65628 9.16583 8.9403 9.45645L10.865 11.4259C11.007 11.5712 11.2372 11.5712 11.3792 11.4259L11.8935 10.8997ZM16.0611 6.49128C15.894 6.37729 15.6682 6.42349 15.5568 6.59448L13.0511 10.4404C12.9397 10.6114 12.9849 10.8424 13.152 10.9564L13.7571 11.3692C13.9242 11.4832 14.15 11.437 14.2614 11.266L16.767 7.42007C16.8784 7.24908 16.8333 7.01806 16.6662 6.90407L16.0611 6.49128Z" fill="#494949"/>
</svg>
