<svg width="16" height="13" viewBox="0 0 16 13" fill="none" xmlns="http://www.w3.org/2000/svg">
<path id="mail" d="M1.6 12.9C1.16 12.9 0.783333 12.7433 0.47 12.43C0.156667 12.1166 0 11.74 0 11.3V1.69998C0 1.25998 0.156667 0.883309 0.47 0.569976C0.783333 0.256642 1.16 0.0999756 1.6 0.0999756H14.4C14.84 0.0999756 15.2167 0.256642 15.53 0.569976C15.8433 0.883309 16 1.25998 16 1.69998V11.3C16 11.74 15.8433 12.1166 15.53 12.43C15.2167 12.7433 14.84 12.9 14.4 12.9H1.6ZM8 7.29998L14.4 3.29998V1.69998L8 5.69998L1.6 1.69998V3.29998L8 7.29998Z" fill="#494949"/>
</svg>
