<svg width="21" height="22" viewBox="0 0 21 22" fill="none" xmlns="http://www.w3.org/2000/svg">
<g id="Frame 158">
<path id="Vector" d="M4.76368 5.95208L0.282542 2.97195C0.226319 2.93449 0.155327 2.93212 0.0967216 2.96247C0.0362108 2.99423 0 3.05539 0 3.12271V8.54061C0 8.60082 0.0309695 8.65676 0.0805217 8.689L4.56261 11.671C4.59215 11.6905 4.62884 11.7014 4.66314 11.7014C4.69269 11.7014 4.72223 11.6947 4.74891 11.68C4.80799 11.6478 4.84563 11.5866 4.84563 11.5203V6.10284C4.8442 6.04263 4.81466 5.98574 4.76368 5.95208Z" fill="#494949"/>
<path id="Vector_2" d="M10.1499 16.2498L5.66877 13.2697C5.61255 13.2327 5.54156 13.2284 5.48295 13.2606C5.42387 13.291 5.38623 13.3517 5.38623 13.419V18.8383C5.38623 18.8985 5.4172 18.9545 5.46675 18.9876L9.94884 21.9692C9.97838 21.9886 10.0151 21.9991 10.0494 21.9991C10.0789 21.9991 10.1085 21.991 10.1351 21.9777C10.1942 21.946 10.2304 21.8848 10.2304 21.818V16.4005C10.2304 16.3408 10.2009 16.283 10.1499 16.2498Z" fill="#494949"/>
<path id="Vector_3" d="M20.9075 3.35121C20.8499 3.31944 20.7803 3.32086 20.7241 3.35405L16.2415 6.06395C16.1881 6.09666 16.1548 6.15545 16.1548 6.21803V11.9085C16.1548 11.9749 16.1919 12.0361 16.251 12.0659C16.2777 12.0806 16.3073 12.0882 16.3368 12.0882C16.3716 12.0882 16.4078 12.0783 16.4369 12.0583L20.9194 9.07679C20.969 9.0436 20.9999 8.98766 20.9999 8.9265V3.5086C20.9999 3.44271 20.9647 3.38297 20.9075 3.35121Z" fill="#494949"/>
<path id="Vector_4" d="M9.83125 2.66993C9.83268 2.60498 9.79885 2.54335 9.74168 2.51016L5.53594 0.0254557C5.484 -0.00678243 5.41825 -0.00773058 5.36298 0.0188184L0.672202 2.33664C0.61312 2.36651 0.574527 2.4253 0.571668 2.49025C0.56738 2.55378 0.599779 2.61683 0.654572 2.65096L4.8465 5.30492C4.87604 5.32341 4.90939 5.33337 4.94417 5.33337C4.97228 5.33337 5.00182 5.32625 5.02851 5.31203L9.73453 2.82638C9.79218 2.79461 9.82982 2.73441 9.83125 2.66993Z" fill="#494949"/>
<path id="Vector_5" d="M20.5185 2.87097C20.517 2.80554 20.4813 2.74486 20.4222 2.71499L15.993 0.363506C15.9396 0.33506 15.8753 0.33506 15.822 0.364928L11.4356 2.72874C11.378 2.76003 11.3408 2.82024 11.3408 2.88756C11.3408 2.95251 11.3766 3.01414 11.4342 3.04591L15.8877 5.51828C15.9158 5.53298 15.9463 5.54104 15.9759 5.54104C16.0078 5.54104 16.0387 5.53298 16.0669 5.51686L20.4275 3.03121C20.4856 2.99755 20.5199 2.93734 20.5185 2.87097Z" fill="#494949"/>
<path id="Vector_6" d="M15.517 13.2606C15.4584 13.2284 15.3874 13.2322 15.3307 13.2696L10.85 16.2498C10.799 16.2834 10.7681 16.3408 10.7681 16.4005V21.8184C10.7681 21.8853 10.8057 21.9464 10.8643 21.9782C10.8915 21.9915 10.9205 22 10.9501 22C10.9853 22 11.0211 21.9886 11.0506 21.9697L15.5332 18.9881C15.5827 18.9549 15.6137 18.899 15.6137 18.8388V13.4199C15.6137 13.3526 15.5761 13.2914 15.517 13.2606Z" fill="#494949"/>
<path id="Vector_7" d="M15.1556 12.787C15.157 12.7221 15.1232 12.6604 15.066 12.6273L10.6983 9.83108C10.6463 9.79979 10.5806 9.79837 10.5258 9.82491L5.78403 12.5727C5.72542 12.6026 5.68635 12.6614 5.68397 12.7263C5.67968 12.7903 5.71208 12.8529 5.76688 12.8875L10.3438 15.87C10.3733 15.8885 10.4062 15.898 10.4415 15.898C10.4696 15.898 10.4991 15.8914 10.5258 15.8767L15.0589 12.943C15.1165 12.9122 15.1542 12.852 15.1556 12.787Z" fill="#494949"/>
<path id="Vector_8" d="M10.2752 3.35121C10.2175 3.31944 10.148 3.32086 10.0918 3.35405L5.47197 5.82738C5.41861 5.86009 5.38525 5.9184 5.38525 5.98146V11.672C5.38525 11.7383 5.42242 11.7995 5.4815 11.8298C5.50818 11.8441 5.53772 11.8516 5.56726 11.8516C5.60204 11.8516 5.63778 11.8417 5.66732 11.8218L10.3786 9.27069C10.4281 9.23751 10.4591 9.18156 10.4591 9.11993L10.3681 3.5086C10.3681 3.44271 10.3333 3.38297 10.2752 3.35121Z" fill="#494949"/>
<path id="Vector_9" d="M15.5684 5.9231L11.0882 3.31655C11.032 3.27958 10.9615 3.27483 10.9024 3.30707C10.8433 3.33789 10.8062 3.39857 10.8062 3.46542L10.8562 9.08528C10.8562 9.14549 10.8872 9.20096 10.9362 9.23414L15.4231 11.9587C15.4526 11.9782 15.4893 11.9891 15.5236 11.9891C15.5532 11.9891 15.5827 11.9805 15.6094 11.9677C15.6685 11.9355 15.7047 11.8748 15.7047 11.8075V6.19001C15.7047 6.1298 15.6194 5.95581 15.5684 5.9231Z" fill="#494949"/>
</g>
</svg>
