<svg width="16" height="16" viewBox="0 0 16 16" fill="none" xmlns="http://www.w3.org/2000/svg">
<path id="add_box" d="M7.11111 12.4444H8.88889V8.88889H12.4444V7.11111H8.88889V3.55556H7.11111V7.11111H3.55556V8.88889H7.11111V12.4444ZM1.77778 16C1.28889 16 0.87037 15.8259 0.522222 15.4778C0.174074 15.1296 0 14.7111 0 14.2222V1.77778C0 1.28889 0.174074 0.87037 0.522222 0.522222C0.87037 0.174074 1.28889 0 1.77778 0H14.2222C14.7111 0 15.1296 0.174074 15.4778 0.522222C15.8259 0.87037 16 1.28889 16 1.77778V14.2222C16 14.7111 15.8259 15.1296 15.4778 15.4778C15.1296 15.8259 14.7111 16 14.2222 16H1.77778Z" fill="#282828"/>
</svg>
