<?xml version="1.0" encoding="utf-8"?>
<!-- Generator: Adobe Illustrator 27.0.0, SVG Export Plug-In . SVG Version: 6.00 Build 0)  -->
<svg version="1.1" id="Layer_1" xmlns="http://www.w3.org/2000/svg" xmlns:xlink="http://www.w3.org/1999/xlink" x="0px" y="0px"
	 viewBox="0 0 134.9 135.4" style="enable-background:new 0 0 134.9 135.4;" xml:space="preserve">
<style type="text/css">
	.st0{fill:#FFFFFF;}
</style>
<g>
	<g>
		<g>
			<path class="st0" d="M77.6,91.5c-0.3-0.6-0.6-1.3-0.8-2.1c-0.2-0.8-0.4-1.6-0.5-2.5c-0.7,0.8-1.5,1.5-2.4,2.2s-1.9,1.3-3,1.8
				s-2.3,0.9-3.7,1.2c-1.3,0.3-2.8,0.4-4.4,0.4c-2.5,0-4.9-0.4-7-1.1s-3.9-1.8-5.5-3.1c-1.5-1.3-2.7-2.9-3.6-4.7
				c-0.9-1.8-1.3-3.8-1.3-5.9c0-5.2,1.9-9.3,5.8-12.1c3.9-2.9,9.7-4.3,17.4-4.3h7.1v-2.9c0-2.4-0.8-4.3-2.3-5.7
				c-1.6-1.4-3.8-2.1-6.7-2.1c-2.6,0-4.5,0.6-5.7,1.7c-1.2,1.1-1.8,2.6-1.8,4.5H46.5c0-2.1,0.5-4.1,1.4-6s2.3-3.6,4.1-5
				s4-2.6,6.6-3.4c2.6-0.8,5.5-1.3,8.9-1.3c3,0,5.8,0.4,8.4,1.1c2.6,0.7,4.8,1.8,6.7,3.3c1.9,1.4,3.4,3.2,4.4,5.4
				c1.1,2.2,1.6,4.7,1.6,7.6v21.3c0,2.7,0.2,4.9,0.5,6.6s0.8,3.2,1.5,4.5v0.8h-13V91.5z M65.5,82.6c1.3,0,2.5-0.2,3.6-0.5
				s2.1-0.7,3-1.2s1.6-1,2.3-1.7c0.6-0.6,1.1-1.3,1.5-1.9v-8.5h-6.5c-2,0-3.7,0.2-5.1,0.6s-2.6,0.9-3.4,1.6c-0.9,0.7-1.5,1.5-2,2.5
				c-0.4,1-0.6,2-0.6,3.1c0,1.7,0.6,3.1,1.8,4.3C61.2,82,63,82.6,65.5,82.6z"/>
		</g>
	</g>
	<g>
		<path class="st0" d="M67.3,134.6c-36.7,0-66.5-29.8-66.5-66.5c0-36.7,29.8-66.5,66.5-66.5s66.5,29.8,66.5,66.5
			C133.8,104.8,104,134.6,67.3,134.6z M67.3,11.2c-31.4,0-56.9,25.5-56.9,56.9c0,31.4,25.5,56.9,56.9,56.9s56.9-25.5,56.9-56.9
			C124.2,36.7,98.7,11.2,67.3,11.2z"/>
	</g>
</g>
</svg>
