<svg width="20" height="20" viewBox="0 0 20 20" fill="none" xmlns="http://www.w3.org/2000/svg">
<mask id="mask0_146_858" style="mask-type:alpha" maskUnits="userSpaceOnUse" x="0" y="0" width="20" height="20">
<rect width="20" height="20" fill="#D9D9D9"/>
</mask>
<g mask="url(#mask0_146_858)">
<path d="M7.54853 14.5833C7.17342 14.5833 6.85636 14.4538 6.59734 14.1948C6.33831 13.9357 6.2088 13.6187 6.2088 13.2436V3.75644C6.2088 3.38133 6.33831 3.06426 6.59734 2.80523C6.85636 2.5462 7.17342 2.41669 7.54853 2.41669H15.0357C15.4108 2.41669 15.7278 2.5462 15.9869 2.80523C16.2459 3.06426 16.3754 3.38133 16.3754 3.75644V13.2436C16.3754 13.6187 16.2459 13.9357 15.9869 14.1948C15.7278 14.4538 15.4108 14.5833 15.0357 14.5833H7.54853ZM7.54853 13.5H15.0357C15.0998 13.5 15.1585 13.4733 15.212 13.4199C15.2654 13.3664 15.2921 13.3077 15.2921 13.2436V3.75644C15.2921 3.69233 15.2654 3.63356 15.212 3.58013C15.1585 3.52671 15.0998 3.5 15.0357 3.5H7.54853C7.48442 3.5 7.42566 3.52671 7.37224 3.58013C7.31881 3.63356 7.29209 3.69233 7.29209 3.75644V13.2436C7.29209 13.3077 7.31881 13.3664 7.37224 13.4199C7.42566 13.4733 7.48442 13.5 7.54853 13.5ZM4.96522 17.1666C4.59012 17.1666 4.27306 17.0371 4.01403 16.7781C3.755 16.519 3.62549 16.202 3.62549 15.8269V5.25644H4.7088V15.8269C4.7088 15.891 4.73551 15.9498 4.78893 16.0032C4.84236 16.0566 4.90112 16.0833 4.96522 16.0833H13.5357V17.1666H4.96522Z" fill="white"/>
</g>
</svg>
