<!DOCTYPE svg PUBLIC "-//W3C//DTD SVG 1.1//EN" "http://www.w3.org/Graphics/SVG/1.1/DTD/svg11.dtd">
<!-- Uploaded to: SVG Repo, www.svgrepo.com, Transformed by: SVG Repo Mixer Tools -->
<svg width="800px" height="800px" viewBox="0 0 1024 1024" xmlns="http://www.w3.org/2000/svg" fill="#000000" stroke="#000000" stroke-width="0.01024">
<g id="SVGRepo_bgCarrier" stroke-width="0"/>
<g id="SVGRepo_tracerCarrier" stroke-linecap="round" stroke-linejoin="round"/>
<g id="SVGRepo_iconCarrier">
<path fill="#ffffff" d="M160 256H96a32 32 0 0 1 0-64h256V95.936a32 32 0 0 1 32-32h256a32 32 0 0 1 32 32V192h256a32 32 0 1 1 0 64h-64v672a32 32 0 0 1-32 32H192a32 32 0 0 1-32-32V256zm448-64v-64H416v64h192zM224 896h576V256H224v640zm192-128a32 32 0 0 1-32-32V416a32 32 0 0 1 64 0v320a32 32 0 0 1-32 32zm192 0a32 32 0 0 1-32-32V416a32 32 0 0 1 64 0v320a32 32 0 0 1-32 32z"/>
</g>
</svg>