<svg fill="#ffffff" viewBox="0 0 36.00 36.00" version="1.1" preserveAspectRatio="xMidYMid meet" xmlns="http://www.w3.org/2000/svg" xmlns:xlink="http://www.w3.org/1999/xlink" stroke="#ffffff" stroke-width="0.00036"><g id="SVGRepo_bgCarrier" stroke-width="0"></g><g id="SVGRepo_tracerCarrier" stroke-linecap="round" stroke-linejoin="round" stroke="#CCCCCC" stroke-width="0.144"></g><g id="SVGRepo_iconCarrier"> <title>deploy-line</title> <path class="clr-i-outline clr-i-outline-path-1" d="M33,2H22.1a1,1,0,0,0,0,2h8.53l-8.82,9a1,1,0,1,0,1.43,1.4L32,5.46V13.9a1,1,0,0,0,2,0V3A1,1,0,0,0,33,2Z"></path><path class="clr-i-outline clr-i-outline-path-2" d="M11.54,10.73l-9,5.17a1,1,0,0,0-.5.87v11a1,1,0,0,0,.5.87l9,5.15a1,1,0,0,0,1,0l9-5.15a1,1,0,0,0,.5-.87v-11a1,1,0,0,0-.5-.87l-9-5.17A1,1,0,0,0,11.54,10.73ZM11,31.08l-7-4V18.44l7,4ZM12,21,4.81,16.87,12,12.78l7.21,4.12Zm8,6.09-7,4V22.44l7-4Z"></path> <rect x="0" y="0" width="36" height="36" fill-opacity="0"></rect> </g></svg>