<svg width="11" height="11" viewBox="0 0 11 11" fill="none" xmlns="http://www.w3.org/2000/svg">
<path d="M6.2868 4.85875C6.19162 4.85875 6.09645 4.82368 6.02131 4.74854C5.87604 4.60327 5.87604 4.36283 6.02131 4.21756L10.1289 0.109929C10.2742 -0.0353409 10.5146 -0.0353409 10.6599 0.109929C10.8052 0.255199 10.8052 0.495645 10.6599 0.640915L6.55229 4.74854C6.48216 4.81867 6.38699 4.85875 6.2868 4.85875Z" fill="white"/>
<path d="M8.30544 5.25976H5.88595C5.68057 5.25976 5.51025 5.08944 5.51025 4.88406V2.46456C5.51025 2.25918 5.68057 2.08887 5.88595 2.08887C6.09133 2.08887 6.26165 2.25918 6.26165 2.46456V4.50836H8.30544C8.51083 4.50836 8.68114 4.67868 8.68114 4.88406C8.68114 5.08944 8.51083 5.25976 8.30544 5.25976Z" fill="white"/>
<path d="M6.88779 10.77H3.88221C1.16216 10.77 0 9.60784 0 6.88779V3.88221C0 1.16216 1.16216 0 3.88221 0H4.88407C5.08945 0 5.25977 0.170316 5.25977 0.375698C5.25977 0.581079 5.08945 0.751395 4.88407 0.751395H3.88221C1.57292 0.751395 0.751395 1.57292 0.751395 3.88221V6.88779C0.751395 9.19708 1.57292 10.0186 3.88221 10.0186H6.88779C9.19708 10.0186 10.0186 9.19708 10.0186 6.88779V5.88593C10.0186 5.68055 10.1889 5.51023 10.3943 5.51023C10.5997 5.51023 10.77 5.68055 10.77 5.88593V6.88779C10.77 9.60784 9.60784 10.77 6.88779 10.77Z" fill="white"/>
</svg>
