<svg width="15" height="11" viewBox="0 0 15 11" fill="none" xmlns="http://www.w3.org/2000/svg">
<path d="M14.0785 3.96795L8.90217 0.09111C8.7685 -0.00913956 8.5854 -0.0283701 8.43169 0.0419307C8.27797 0.112126 8.18014 0.259138 8.18014 0.420441V2.08244C3.62999 2.30301 0 5.88625 0 10.2594V10.3497C0 10.5262 0.116759 10.6838 0.292287 10.7444C0.342263 10.7616 0.393908 10.77 0.445109 10.77C0.573666 10.77 0.699107 10.7172 0.785368 10.6208L1.75027 9.54221C2.99132 8.15479 4.63263 7.19443 6.49687 6.76485C6.73573 6.70968 6.8821 6.48228 6.82389 6.25667C6.76545 6.03126 6.52414 5.89445 6.28561 5.94793C4.23716 6.42018 2.43368 7.47532 1.0702 8.99966L0.988388 9.09119C1.57908 5.59286 4.77899 2.91218 8.62569 2.91218C8.87156 2.91218 9.07091 2.72397 9.07091 2.49185V1.29043L13.0859 4.29749L9.07091 7.30813V6.10251C9.07091 5.87038 8.87156 5.68218 8.62569 5.68218C8.37982 5.68218 8.18047 5.87038 8.18047 6.10251V8.17875C8.18047 8.34005 8.27831 8.48727 8.43224 8.55726C8.58596 8.62767 8.76838 8.60833 8.90273 8.50797L14.0791 4.6264C14.1854 4.54665 14.2474 4.42549 14.2474 4.29718C14.2474 4.16887 14.1848 4.04771 14.0785 3.96795Z" fill="white"/>
</svg>
