<svg width="24" height="24" viewBox="0 0 24 24" fill="none" xmlns="http://www.w3.org/2000/svg">
<mask id="mask0_13_123" style="mask-type:alpha" maskUnits="userSpaceOnUse" x="0" y="0" width="24" height="24">
<rect width="24" height="24" fill="#D9D9D9"/>
</mask>
<g mask="url(#mask0_13_123)">
<path d="M6.5 19C5.24872 19 4.18589 18.5628 3.31152 17.6885C2.43717 16.8141 2 15.7513 2 14.5C2 13.3923 2.38172 12.3907 3.14517 11.4952C3.90864 10.5997 4.8923 10.1128 6.09615 10.0346C6.33333 8.52178 7.01731 7.30448 8.14808 6.38268C9.27884 5.46089 10.5628 5 12 5C13.6756 5 15.0946 5.58173 16.2567 6.74518C17.4189 7.90864 18 9.32692 18 11V12H18.6154C19.5833 12.0308 20.3894 12.3872 21.0337 13.0692C21.6779 13.7513 22 14.5532 22 15.475C22 16.4558 21.6619 17.2885 20.9856 17.9731C20.3093 18.6577 19.4808 19 18.5 19H6.5ZM6.5 18H18.5C19.2 18 19.7917 17.7583 20.275 17.275C20.7583 16.7917 21 16.2 21 15.5C21 14.8 20.7583 14.2083 20.275 13.725C19.7917 13.2417 19.2 13 18.5 13H17V11C17 9.61667 16.5125 8.4375 15.5375 7.4625C14.5625 6.4875 13.3833 6 12 6C10.8346 6 9.78911 6.37404 8.86348 7.12213C7.93783 7.87019 7.36026 8.84166 7.13077 10.0365C8.17436 10.2019 9.08013 10.6862 9.84808 11.4894C10.616 12.2926 11 13.2962 11 14.5H10C10 13.5333 9.65833 12.7083 8.975 12.025C8.29167 11.3417 7.46667 11 6.5 11C5.53333 11 4.70833 11.3417 4.025 12.025C3.34167 12.7083 3 13.5333 3 14.5C3 15.4667 3.34167 16.2917 4.025 16.975C4.70833 17.6583 5.53333 18 6.5 18Z" fill="white"/>
</g>
</svg>
