<svg width="24" height="24" viewBox="0 0 24 24" fill="none" xmlns="http://www.w3.org/2000/svg">
<mask id="mask0_13_177" style="mask-type:alpha" maskUnits="userSpaceOnUse" x="0" y="0" width="24" height="24">
<rect width="24" height="24" fill="#D9D9D9"/>
</mask>
<g mask="url(#mask0_13_177)">
<path d="M20.5057 10.8962V18.8846C20.5057 19.3449 20.3516 19.7292 20.0432 20.0375C19.7349 20.3458 19.3506 20.5 18.8903 20.5H5.1211C4.66085 20.5 4.27656 20.3458 3.96822 20.0375C3.65989 19.7292 3.50572 19.3449 3.50572 18.8846V10.8577C3.08392 10.5461 2.77527 10.1378 2.57975 9.6327C2.38425 9.12757 2.38008 8.58846 2.56725 8.01537L3.54032 4.8077C3.67366 4.4 3.88872 4.08012 4.18552 3.84807C4.48232 3.61602 4.84931 3.5 5.28647 3.5H18.6865C19.1237 3.5 19.4897 3.60865 19.7846 3.82595C20.0794 4.04327 20.2955 4.35769 20.4326 4.76922L21.4442 8.01537C21.6314 8.58846 21.6272 9.13205 21.4317 9.64615C21.2362 10.1603 20.9275 10.5769 20.5057 10.8962ZM14.2057 10.5C14.848 10.5 15.3275 10.3202 15.6442 9.96057C15.9608 9.60096 16.0942 9.22948 16.0442 8.84615L15.3788 4.5H12.5057V8.7C12.5057 9.19102 12.6737 9.61378 13.0096 9.96828C13.3455 10.3228 13.7442 10.5 14.2057 10.5ZM9.70572 10.5C10.2429 10.5 10.6772 10.3228 11.0086 9.96828C11.34 9.61378 11.5057 9.19102 11.5057 8.7V4.5H8.63265L7.96725 8.92307C7.92623 9.23332 8.06182 9.57371 8.374 9.94422C8.68617 10.3147 9.13007 10.5 9.70572 10.5ZM5.25572 10.5C5.69674 10.5 6.07142 10.35 6.37975 10.05C6.68808 9.75 6.88007 9.37564 6.95572 8.92693L7.58265 4.5H5.28647C5.06854 4.5 4.89547 4.54807 4.76725 4.64422C4.63905 4.74039 4.5429 4.88463 4.4788 5.07693L3.55572 8.23463C3.39162 8.76026 3.46182 9.26923 3.7663 9.76153C4.07078 10.2538 4.56726 10.5 5.25572 10.5ZM18.7557 10.5C19.3544 10.5 19.8326 10.2667 20.1903 9.8C20.548 9.33333 20.6365 8.81154 20.4557 8.23463L19.4826 5.03845C19.4185 4.84615 19.3224 4.70833 19.1942 4.625C19.066 4.54167 18.8929 4.5 18.6749 4.5H16.4288L17.0557 8.92693C17.1314 9.37564 17.3233 9.75 17.6317 10.05C17.94 10.35 18.3147 10.5 18.7557 10.5ZM5.1211 19.5H18.8903C19.0698 19.5 19.2173 19.4423 19.3326 19.3269C19.448 19.2115 19.5057 19.0641 19.5057 18.8846V11.3731C19.3711 11.4192 19.2432 11.4519 19.1221 11.4712C19.0009 11.4904 18.8788 11.5 18.7557 11.5C18.3057 11.5 17.9099 11.4122 17.5682 11.2366C17.2266 11.0609 16.9019 10.7808 16.5942 10.3962C16.3326 10.7218 16.0102 10.9872 15.6269 11.1923C15.2435 11.3974 14.7775 11.5 14.2288 11.5C13.8301 11.5 13.4509 11.4071 13.0913 11.2212C12.7317 11.0353 12.3698 10.7603 12.0057 10.3962C11.6711 10.7603 11.3003 11.0353 10.8932 11.2212C10.4862 11.4071 10.098 11.5 9.7288 11.5C9.30957 11.5 8.90091 11.4199 8.50282 11.2596C8.10476 11.0994 7.75572 10.8115 7.45572 10.3962C6.96469 10.8872 6.53552 11.1939 6.16822 11.3163C5.80091 11.4388 5.49674 11.5 5.25572 11.5C5.13264 11.5 5.0086 11.4904 4.8836 11.4712C4.7586 11.4519 4.63264 11.4192 4.50572 11.3731V18.8846C4.50572 19.0641 4.56342 19.2115 4.6788 19.3269C4.79418 19.4423 4.94162 19.5 5.1211 19.5Z" fill="white"/>
</g>
</svg>
