<svg width="24" height="24" viewBox="0 0 24 24" fill="none" xmlns="http://www.w3.org/2000/svg">
<mask id="mask0_283_3038" style="mask-type:alpha" maskUnits="userSpaceOnUse" x="0" y="0" width="24" height="24">
<rect width="24" height="24" fill="#D9D9D9"/>
</mask>
<g mask="url(#mask0_283_3038)">
<path d="M10.1346 21L9.77309 18.1077C9.45386 18.0115 9.10867 17.8603 8.73752 17.6538C8.36637 17.4474 8.05066 17.2263 7.79039 16.9904L5.12309 18.125L3.25769 14.875L5.56347 13.1365C5.53398 12.9558 5.50962 12.7695 5.49039 12.5779C5.47116 12.3862 5.46154 12.2 5.46154 12.0192C5.46154 11.8513 5.47116 11.6747 5.49039 11.4894C5.50962 11.3042 5.53398 11.0955 5.56347 10.8635L3.25769 9.125L5.12309 5.91345L7.77117 7.02885C8.06988 6.78013 8.39296 6.55578 8.74039 6.35578C9.08782 6.15578 9.42565 6.00128 9.75387 5.8923L10.1346 3H13.8654L14.2269 5.91153C14.6103 6.04614 14.9491 6.20063 15.2433 6.375C15.5375 6.54935 15.8404 6.7673 16.1519 7.02885L18.8769 5.91345L20.7423 9.125L18.3596 10.9212C18.4148 11.1276 18.4455 11.317 18.4519 11.4894C18.4584 11.6619 18.4616 11.8321 18.4616 12C18.4616 12.1551 18.4552 12.3189 18.4423 12.4914C18.4295 12.6638 18.4 12.8724 18.3539 13.1173L20.6981 14.875L18.8327 18.125L16.1519 16.9712C15.8404 17.2327 15.5269 17.4571 15.2116 17.6442C14.8962 17.8314 14.568 17.9795 14.2269 18.0885L13.8654 21H10.1346ZM11 20H12.9558L13.325 17.2923C13.8289 17.159 14.2824 16.976 14.6856 16.7433C15.0888 16.5106 15.4994 16.1917 15.9173 15.7866L18.4116 16.85L19.4058 15.15L17.2173 13.5058C17.3006 13.2212 17.3558 12.9593 17.3827 12.7202C17.4096 12.4811 17.4231 12.241 17.4231 12C17.4231 11.7462 17.4096 11.5061 17.3827 11.2798C17.3558 11.0535 17.3006 10.8045 17.2173 10.5327L19.4442 8.85L18.45 7.15L15.8981 8.21922C15.5955 7.88717 15.1978 7.57596 14.7048 7.28557C14.2119 6.99519 13.7455 6.80257 13.3058 6.7077L13 4H11.0058L10.6942 6.68845C10.1904 6.79615 9.72725 6.96955 9.30481 7.20865C8.88238 7.44775 8.46219 7.77627 8.04424 8.19422L5.55002 7.15L4.55579 8.85L6.72502 10.4692C6.64168 10.6936 6.58335 10.9372 6.55002 11.2C6.51668 11.4628 6.50002 11.7359 6.50002 12.0192C6.50002 12.2731 6.51668 12.525 6.55002 12.775C6.58335 13.025 6.63527 13.2686 6.70579 13.5058L4.55579 15.15L5.55002 16.85L8.02502 15.8C8.41732 16.1961 8.82469 16.5138 9.24714 16.7529C9.66957 16.992 10.1455 17.1782 10.675 17.3116L11 20ZM11.9731 14.5C12.6705 14.5 13.2615 14.2577 13.7462 13.7731C14.2308 13.2885 14.4731 12.6974 14.4731 12C14.4731 11.3026 14.2308 10.7115 13.7462 10.2269C13.2615 9.74231 12.6705 9.5 11.9731 9.5C11.2718 9.5 10.6798 9.74231 10.1971 10.2269C9.71443 10.7115 9.47309 11.3026 9.47309 12C9.47309 12.6974 9.71443 13.2885 10.1971 13.7731C10.6798 14.2577 11.2718 14.5 11.9731 14.5Z" fill="white"/>
</g>
</svg>
