<svg width="11" height="11" viewBox="0 0 11 11" fill="none" xmlns="http://www.w3.org/2000/svg">
<path d="M4.92671 0.0546145C4.88235 0.0866537 4.82073 0.143338 4.79362 0.180306C4.74187 0.249313 4.74187 0.26903 4.73447 1.93999L4.72954 3.63067L4.51266 3.42118C4.27852 3.19198 4.16762 3.13529 4.00496 3.16487C3.90391 3.18458 3.78314 3.27824 3.73139 3.37928C3.68456 3.46801 3.68456 3.63067 3.72892 3.71693C3.77329 3.79579 4.89221 4.91223 4.96861 4.95166C5.03762 4.98616 5.21014 4.98616 5.27914 4.95166C5.35555 4.91223 6.47447 3.79579 6.51883 3.71693C6.56319 3.63067 6.56319 3.46801 6.51636 3.37928C6.46461 3.27824 6.34384 3.18458 6.2428 3.16487C6.08013 3.13529 5.96923 3.19198 5.73509 3.42118L5.51821 3.63067L5.51328 1.93999C5.50589 0.26903 5.50589 0.249313 5.45413 0.180306C5.36787 0.0620084 5.25203 0.000394821 5.12388 0.000394821C5.04501 0.000394821 4.98339 0.0176463 4.92671 0.0546145Z" fill="white"/>
<path d="M2.56073 2.11889C2.31673 2.15339 2.02098 2.25444 1.85832 2.36042C1.65623 2.48857 1.50342 2.66848 1.37034 2.9248C1.19781 3.26244 0.10847 5.83049 0.0567138 6.02519C0.0148159 6.18292 0.00988679 6.32094 0.00249304 7.71587C-0.0049007 9.42133 -0.00736527 9.40901 0.170085 9.7713C0.347534 10.1385 0.628496 10.4195 0.995719 10.5969C1.37034 10.7793 1.10416 10.7694 5.12636 10.7694C8.64085 10.7694 8.74436 10.767 8.9292 10.7201C9.40733 10.5994 9.8411 10.2519 10.058 9.81566C10.2551 9.4238 10.2527 9.44105 10.2453 7.70108L10.2379 6.17306L10.1714 5.96358C10.0974 5.72452 9.02039 3.20083 8.86512 2.89769C8.59402 2.3752 8.12575 2.12136 7.41102 2.1115C7.13006 2.10657 7.09309 2.1115 7.02901 2.15832C6.78995 2.33577 6.78748 2.63891 7.02655 2.81636C7.08077 2.85579 7.15224 2.87058 7.37652 2.88536C7.83986 2.9174 7.98527 2.97902 8.12821 3.19836C8.19476 3.30187 9.23974 5.69494 9.23974 5.74423C9.23974 5.75409 8.85527 5.76642 8.38453 5.77381C7.42827 5.78613 7.36173 5.79599 7.01176 5.96111C6.80473 6.05723 6.57306 6.21989 6.43751 6.36283C6.39561 6.4072 6.27731 6.56493 6.17873 6.71526C5.88791 7.15149 5.62174 7.31661 5.18058 7.33879C4.6852 7.36344 4.35248 7.16628 4.03455 6.65858C3.83738 6.34558 3.57121 6.11392 3.21877 5.95126C2.88112 5.79599 2.81211 5.78613 1.86572 5.77381C1.39252 5.76642 1.00804 5.75409 1.00804 5.74423C1.00804 5.69494 2.05302 3.30187 2.11957 3.19836C2.26251 2.97902 2.40792 2.9174 2.87126 2.88536C3.09554 2.87058 3.16701 2.85579 3.22124 2.81636C3.4603 2.63891 3.45783 2.33577 3.21877 2.15832C3.16209 2.11643 3.10786 2.10657 2.93534 2.10164C2.81704 2.09917 2.64945 2.10903 2.56073 2.11889ZM2.785 6.62161C3.0709 6.72759 3.22863 6.86314 3.43319 7.1786C3.66486 7.53596 3.89899 7.75284 4.23664 7.92289C4.51268 8.0609 4.70984 8.11266 5.03763 8.12498C5.50097 8.1447 5.83862 8.05105 6.22309 7.7972C6.46462 7.63947 6.62975 7.46202 6.83677 7.14656C7.00437 6.89518 7.1202 6.78427 7.33955 6.67583C7.55643 6.56986 7.70184 6.55507 8.6162 6.55507H9.46402L9.45416 7.85388C9.4443 9.24389 9.4443 9.25867 9.31614 9.50513C9.20031 9.73433 8.93906 9.90438 8.6236 9.95367C8.40178 9.99064 1.846 9.99064 1.62419 9.95367C1.41716 9.92163 1.18796 9.81566 1.06966 9.69736C0.951356 9.57906 0.845379 9.34986 0.81334 9.14284C0.796088 9.04919 0.78623 8.48481 0.78623 7.76762V6.5526L1.71784 6.56C2.5903 6.56986 2.65438 6.57232 2.785 6.62161Z" fill="white"/>
</svg>
