<svg width="121" height="25" viewBox="0 0 121 25" fill="none" xmlns="http://www.w3.org/2000/svg">
<path d="M1 1V9.37332L6.58222 12.5133L13.2111 8.32666L1 1Z" fill="#7C9A7D"/>
<path d="M6.58222 12.5133L1 15.6533V24.0266L13.2111 16.7L6.58222 12.5133Z" fill="#7C9A7D"/>
<path d="M6.58222 12.5133L1 9.37332V1L13.2111 8.32666L6.58222 12.5133ZM6.58222 12.5133L1 15.6533V24.0266L13.2111 16.7L6.58222 12.5133Z" stroke="#7C9A7D" stroke-width="0.697777"/>
<path fill-rule="evenodd" clip-rule="evenodd" d="M27.2871 5.51367L32.7958 5.51367C33.8863 5.51367 34.6979 5.56142 35.2306 5.65692C35.7695 5.74605 36.249 5.93705 36.6688 6.22991C37.095 6.52277 37.4491 6.91431 37.7311 7.40453C38.0131 7.88839 38.1541 8.43273 38.1541 9.03755C38.1541 9.50356 38.0195 10.1374 37.8423 10.5488C36.9826 9.93472 36.1851 9.69397 35.2633 9.4435C35.2633 9.4435 35.3277 8.65555 35.0896 8.38816C34.8577 8.1144 34.5099 7.94887 34.0461 7.89157C33.7703 7.85974 32.9776 7.84382 31.6678 7.84382H30.0697V11.0812H31.8934C32.3173 11.0812 32.6792 11.0861 32.9784 11.0901C33.4446 11.0964 33.9191 11.0812 33.9191 11.0812C36.252 11.0812 37.4801 12.2681 38.1541 13.3445C38.5854 14.1102 38.831 14.6465 38.831 15.455C38.831 16.0917 38.6837 16.7124 38.3891 17.3172C38.1009 17.9157 37.7029 18.3963 37.1953 18.7592C36.6939 19.1158 36.0735 19.3354 35.334 19.4182C34.8702 19.4691 33.7515 19.5009 31.978 19.5137H27.2871V5.51367ZM30.0697 17.1549V13.4114H32.3164C33.5823 13.4114 34.4033 13.4782 34.7793 13.6119C35.1616 13.7456 35.453 13.9589 35.6536 14.2517C35.8541 14.5446 35.9544 14.9011 35.9544 15.3213C35.9544 15.8179 35.8228 16.2158 35.5596 16.515C35.3026 16.8079 34.9673 16.9925 34.5537 17.0689C34.2842 17.1262 33.6481 17.1549 32.6454 17.1549H30.0697Z" fill="white"/>
<path d="M44.8257 19.7204C43.7371 19.7204 42.8 19.4999 42.0144 19.0589C41.2335 18.6133 40.6318 17.984 40.2091 17.1709C39.7865 16.3533 39.5752 15.3863 39.5752 14.27C39.5752 13.1813 39.7865 12.2259 40.2091 11.4036C40.6318 10.5814 41.2266 9.94054 41.9938 9.48117C42.7655 9.02181 43.6704 8.79213 44.7086 8.79213C45.4068 8.79213 46.0568 8.90467 46.6586 9.12976C47.265 9.35026 47.7932 9.6833 48.2434 10.1289C48.6982 10.5745 49.0519 11.1349 49.3045 11.8101C49.5572 12.4808 49.6835 13.2663 49.6835 14.1667V14.9729H40.7466V13.1538H46.9204C46.9204 12.7312 46.8286 12.3568 46.6448 12.0306C46.4611 11.7045 46.2061 11.4495 45.88 11.2658C45.5584 11.0775 45.1841 10.9833 44.7568 10.9833C44.3113 10.9833 43.9162 11.0867 43.5717 11.2934C43.2318 11.4955 42.9653 11.7688 42.7724 12.1133C42.5795 12.4533 42.4807 12.8322 42.4761 13.2503V14.9798C42.4761 15.5034 42.5726 15.9559 42.7655 16.3372C42.963 16.7184 43.2409 17.0124 43.5992 17.2192C43.9576 17.4259 44.3825 17.5292 44.874 17.5292C45.2001 17.5292 45.4987 17.4833 45.7697 17.3914C46.0408 17.2995 46.2727 17.1617 46.4657 16.978C46.6586 16.7942 46.8056 16.5692 46.9067 16.3027L49.6215 16.4819C49.4837 17.1342 49.2012 17.7038 48.774 18.1907C48.3514 18.673 47.8047 19.0497 47.134 19.3207C46.468 19.5872 45.6985 19.7204 44.8257 19.7204ZM56.0643 8.92994V11.1349H49.6907V8.92994H56.0643ZM51.1377 6.39425H54.073V16.2614C54.073 16.5324 54.1144 16.7437 54.197 16.8953C54.2797 17.0423 54.3946 17.1457 54.5416 17.2054C54.6931 17.2651 54.8677 17.2949 55.0652 17.2949C55.203 17.2949 55.3409 17.2835 55.4787 17.2605C55.6165 17.2329 55.7221 17.2123 55.7956 17.1985L56.2573 19.3828C56.1103 19.4287 55.9036 19.4815 55.6371 19.5412C55.3707 19.6055 55.0469 19.6446 54.6656 19.6584C53.9582 19.6859 53.338 19.5918 52.8052 19.3759C52.2769 19.16 51.8658 18.8246 51.5718 18.3699C51.2778 17.9151 51.1331 17.3409 51.1377 16.6472V6.39425ZM62.4417 8.92994V11.1349H56.0681V8.92994H62.4417ZM57.5151 6.39425H60.4504V16.2614C60.4504 16.5324 60.4917 16.7437 60.5744 16.8953C60.6571 17.0423 60.7719 17.1457 60.9189 17.2054C61.0705 17.2651 61.2451 17.2949 61.4426 17.2949C61.5804 17.2949 61.7182 17.2835 61.856 17.2605C61.9939 17.2329 62.0995 17.2123 62.173 17.1985L62.6347 19.3828C62.4877 19.4287 62.281 19.4815 62.0145 19.5412C61.7481 19.6055 61.4242 19.6446 61.043 19.6584C60.3356 19.6859 59.7154 19.5918 59.1826 19.3759C58.6543 19.16 58.2432 18.8246 57.9492 18.3699C57.6552 17.9151 57.5105 17.3409 57.5151 16.6472V6.39425ZM67.8992 19.7204C66.8106 19.7204 65.8735 19.4999 65.0879 19.0589C64.307 18.6133 63.7053 17.984 63.2826 17.1709C62.86 16.3533 62.6487 15.3863 62.6487 14.27C62.6487 13.1813 62.86 12.2259 63.2826 11.4036C63.7053 10.5814 64.3001 9.94054 65.0673 9.48117C65.839 9.02181 66.7439 8.79213 67.7821 8.79213C68.4803 8.79213 69.1303 8.90467 69.7321 9.12976C70.3385 9.35026 70.8667 9.6833 71.3169 10.1289C71.7717 10.5745 72.1254 11.1349 72.378 11.8101C72.6307 12.4808 72.757 13.2663 72.757 14.1667V14.9729H63.8201V13.1538H69.9939C69.9939 12.7312 69.9021 12.3568 69.7183 12.0306C69.5346 11.7045 69.2796 11.4495 68.9535 11.2658C68.6319 11.0775 68.2576 10.9833 67.8303 10.9833C67.3848 10.9833 66.9897 11.0867 66.6452 11.2934C66.3053 11.4955 66.0388 11.7688 65.8459 12.1133C65.653 12.4533 65.5542 12.8322 65.5496 13.2503V14.9798C65.5496 15.5034 65.6461 15.9559 65.839 16.3372C66.0365 16.7184 66.3144 17.0124 66.6727 17.2192C67.0311 17.4259 67.456 17.5292 67.9475 17.5292C68.2736 17.5292 68.5722 17.4833 68.8432 17.3914C69.1143 17.2995 69.3462 17.1617 69.5392 16.978C69.7321 16.7942 69.8791 16.5692 69.9802 16.3027L72.695 16.4819C72.5572 17.1342 72.2747 17.7038 71.8475 18.1907C71.4249 18.673 70.8782 19.0497 70.2075 19.3207C69.5415 19.5872 68.772 19.7204 67.8992 19.7204ZM73.5084 19.5137V8.92994H76.3541V10.7766H76.4644C76.6573 10.1197 76.9811 9.62358 77.4359 9.28824C77.8907 8.94831 78.4144 8.77835 79.0069 8.77835C79.1539 8.77835 79.3124 8.78754 79.4824 8.80591C79.6523 8.82429 79.8016 8.84955 79.9303 8.88171V11.4863C79.7924 11.445 79.6018 11.4082 79.3583 11.376C79.1149 11.3439 78.8921 11.3278 78.69 11.3278C78.2582 11.3278 77.8723 11.422 77.5324 11.6103C77.197 11.7941 76.9306 12.0513 76.7331 12.3821C76.5402 12.7128 76.4437 13.0941 76.4437 13.5259V19.5137H73.5084ZM83.3224 5.40203V19.5137H80.3388V5.40203H83.3224ZM89.6153 19.5137H84.6129V5.40203H89.6567C91.0761 5.40203 92.298 5.68454 93.3224 6.24955C94.3468 6.80998 95.1346 7.61616 95.6858 8.6681C96.2416 9.72004 96.5196 10.9787 96.5196 12.4441C96.5196 13.914 96.2416 15.1773 95.6858 16.2338C95.1346 17.2904 94.3422 18.1011 93.3086 18.6661C92.2796 19.2312 91.0485 19.5137 89.6153 19.5137ZM87.5964 16.9573H89.4913C90.3733 16.9573 91.1151 16.8011 91.7169 16.4888C92.3233 16.1718 92.778 15.6826 93.0812 15.0211C93.389 14.355 93.5429 13.496 93.5429 12.4441C93.5429 11.4013 93.389 10.5492 93.0812 9.88771C92.778 9.22623 92.3256 8.7393 91.7238 8.42694C91.122 8.11457 90.3802 7.95839 89.4982 7.95839H87.5964V16.9573ZM97.5655 19.5137V5.40203H107.074V7.86192H100.549V11.2245H106.585V13.6844H100.549V17.0538H107.102V19.5137H97.5655Z" fill="white"/>
<path fill-rule="evenodd" clip-rule="evenodd" d="M120.375 5.51367L114.866 5.51367C113.776 5.51367 112.964 5.56142 112.432 5.65692C111.893 5.74605 111.413 5.93705 110.993 6.22991C110.567 6.52277 110.154 6.81939 109.807 7.35578C109.128 8.40773 109.193 9.4435 109.508 10.5488C110.368 9.93472 111.477 9.69397 112.399 9.4435C112.399 9.4435 112.334 8.65555 112.573 8.38816C112.804 8.1144 113.152 7.94887 113.616 7.89157C113.892 7.85974 114.685 7.84382 115.994 7.84382H117.592V11.0812H115.769C115.345 11.0812 114.983 11.0861 114.684 11.0901C114.218 11.0964 113.743 11.0812 113.743 11.0812C111.41 11.0812 110.182 12.2681 109.508 13.3445C109.077 14.1102 108.831 14.6465 108.831 15.455C108.831 16.0917 108.978 16.7124 109.273 17.3172C109.561 17.9157 109.959 18.3963 110.467 18.7592C110.968 19.1158 111.589 19.3354 112.328 19.4182C112.792 19.4691 113.911 19.5009 115.684 19.5137H120.375V5.51367ZM117.592 17.1549V13.4114H115.346C114.08 13.4114 113.259 13.4782 112.883 13.6119C112.5 13.7456 112.209 13.9589 112.009 14.2517C111.808 14.5446 111.708 14.9011 111.708 15.3213C111.708 15.8179 111.839 16.2158 112.103 16.515C112.359 16.8079 112.695 16.9925 113.108 17.0689C113.378 17.1262 114.014 17.1549 115.017 17.1549H117.592Z" fill="white"/>
</svg>
