<svg width="24" height="24" viewBox="0 0 24 24" fill="none" xmlns="http://www.w3.org/2000/svg">
<mask id="mask0_13_174" style="mask-type:alpha" maskUnits="userSpaceOnUse" x="0" y="0" width="24" height="24">
<rect width="24" height="24" fill="#D9D9D9"/>
</mask>
<g mask="url(#mask0_13_174)">
<path d="M11.5 19.7135V12.2866L5 8.52312V15.6039C5 15.7065 5.02564 15.8026 5.07692 15.8923C5.12821 15.9821 5.20513 16.059 5.3077 16.1231L11.5 19.7135ZM12.5 19.7135L18.6923 16.1231C18.7949 16.059 18.8718 15.9821 18.9231 15.8923C18.9744 15.8026 19 15.7065 19 15.6039V8.52312L12.5 12.2866V19.7135ZM12 11.427L18.425 7.71349L12.3077 4.17312C12.2051 4.10902 12.1026 4.07697 12 4.07697C11.8974 4.07697 11.7949 4.10902 11.6923 4.17312L5.575 7.71349L12 11.427ZM4.80768 17.0077C4.55513 16.8629 4.35737 16.6661 4.21442 16.4173C4.07147 16.1686 4 15.8994 4 15.6097V8.39042C4 8.10068 4.07147 7.83146 4.21442 7.58274C4.35737 7.33401 4.55513 7.13721 4.80768 6.99234L11.1923 3.31349C11.4449 3.16863 11.7141 3.09619 12 3.09619C12.2859 3.09619 12.5551 3.16863 12.8077 3.31349L19.1923 6.99234C19.4449 7.13721 19.6426 7.33401 19.7856 7.58274C19.9285 7.83146 20 8.10068 20 8.39042V15.6097C20 15.8994 19.9285 16.1686 19.7856 16.4173C19.6426 16.6661 19.4449 16.8629 19.1923 17.0077L12.8077 20.6866C12.5551 20.8315 12.2859 20.9039 12 20.9039C11.7141 20.9039 11.4449 20.8315 11.1923 20.6866L4.80768 17.0077Z" fill="white"/>
</g>
</svg>
