<svg width="30" height="30" viewBox="0 0 30 30" fill="none" xmlns="http://www.w3.org/2000/svg">
<mask id="mask0_67_19" style="mask-type:alpha" maskUnits="userSpaceOnUse" x="0" y="0" width="30" height="30">
<rect x="0.599976" y="0.599976" width="28.8" height="28.8" fill="#D9D9D9"/>
</mask>
<g mask="url(#mask0_67_19)">
<path d="M25.2069 13.6754V23.2616C25.2069 23.8139 25.0219 24.275 24.6519 24.6451C24.2819 25.0151 23.8208 25.2001 23.2685 25.2001H6.74539C6.19309 25.2001 5.73194 25.0151 5.36194 24.6451C4.99194 24.275 4.80694 23.8139 4.80694 23.2616V13.6293C4.30078 13.2554 3.93039 12.7654 3.69577 12.1593C3.46117 11.5531 3.45617 10.9062 3.68077 10.2185L4.84846 6.36929C5.00846 5.88005 5.26654 5.4962 5.6227 5.21774C5.97886 4.93928 6.41924 4.80005 6.94384 4.80005H23.0239C23.5485 4.80005 23.9877 4.93043 24.3416 5.19119C24.6954 5.45197 24.9546 5.82928 25.1193 6.32312L26.3331 10.2185C26.5577 10.9062 26.5527 11.5585 26.3181 12.1754C26.0835 12.7923 25.7131 13.2923 25.2069 13.6754ZM17.6469 13.2C18.4177 13.2 18.9931 12.9843 19.3731 12.5527C19.7531 12.1212 19.9131 11.6754 19.8531 11.2154L19.0546 6.00005H15.6069V11.04C15.6069 11.6293 15.8085 12.1366 16.2116 12.562C16.6146 12.9874 17.0931 13.2 17.6469 13.2ZM12.2469 13.2C12.8915 13.2 13.4127 12.9874 13.8104 12.562C14.2081 12.1366 14.4069 11.6293 14.4069 11.04V6.00005H10.9593L10.1608 11.3077C10.1116 11.68 10.2743 12.0885 10.6489 12.5331C11.0235 12.9777 11.5562 13.2 12.2469 13.2ZM6.90694 13.2C7.43616 13.2 7.88577 13.02 8.25577 12.66C8.62577 12.3 8.85616 11.8508 8.94694 11.3124L9.69925 6.00005H6.94384C6.68232 6.00005 6.47463 6.05774 6.32077 6.17312C6.16693 6.28852 6.05155 6.4616 5.97463 6.69236L4.86694 10.4816C4.67002 11.1124 4.75425 11.7231 5.11963 12.3139C5.48501 12.9047 6.08078 13.2 6.90694 13.2ZM23.1069 13.2C23.8254 13.2 24.3992 12.92 24.8285 12.36C25.2577 11.8 25.3639 11.1739 25.1469 10.4816L23.9793 6.64619C23.9023 6.41543 23.7869 6.25005 23.6331 6.15005C23.4792 6.05005 23.2716 6.00005 23.01 6.00005H20.3146L21.0669 11.3124C21.1577 11.8508 21.3881 12.3 21.7581 12.66C22.1281 13.02 22.5777 13.2 23.1069 13.2ZM6.74539 24H23.2685C23.4839 24 23.6608 23.9308 23.7993 23.7924C23.9377 23.6539 24.0069 23.477 24.0069 23.2616V14.2477C23.8454 14.3031 23.6919 14.3424 23.5466 14.3654C23.4012 14.3885 23.2546 14.4 23.1069 14.4C22.5669 14.4 22.0919 14.2947 21.6819 14.0839C21.2719 13.8731 20.8823 13.537 20.5131 13.0754C20.1992 13.4662 19.8123 13.7847 19.3523 14.0308C18.8923 14.277 18.3331 14.4 17.6746 14.4C17.1962 14.4 16.7412 14.2885 16.3096 14.0654C15.8781 13.8424 15.4439 13.5123 15.0069 13.0754C14.6054 13.5123 14.1604 13.8424 13.6719 14.0654C13.1835 14.2885 12.7177 14.4 12.2746 14.4C11.7716 14.4 11.2812 14.3039 10.8035 14.1116C10.3258 13.9193 9.90694 13.5739 9.54694 13.0754C8.9577 13.6647 8.4427 14.0327 8.00194 14.1797C7.56116 14.3266 7.19616 14.4 6.90694 14.4C6.75924 14.4 6.61039 14.3885 6.46039 14.3654C6.31039 14.3424 6.15924 14.3031 6.00694 14.2477V23.2616C6.00694 23.477 6.07617 23.6539 6.21463 23.7924C6.35309 23.9308 6.53001 24 6.74539 24Z" fill="white"/>
</g>
</svg>
