<svg width="40" height="40" viewBox="0 0 40 40" fill="none" xmlns="http://www.w3.org/2000/svg">
<mask id="mask0_104_313" style="mask-type:alpha" maskUnits="userSpaceOnUse" x="0" y="0" width="40" height="40">
<rect width="40" height="40" fill="#D9D9D9"/>
</mask>
<g mask="url(#mask0_104_313)">
<path d="M22.0618 20L16.7958 25.2661L18.2541 26.766L25.02 20L18.2541 13.234L16.7958 14.734L22.0618 20ZM20.0026 35.8333C17.8127 35.8333 15.7543 35.4178 13.8274 34.5867C11.9005 33.7556 10.2244 32.623 8.799 31.189C7.37362 29.755 6.24518 28.0768 5.41371 26.1543C4.58224 24.2318 4.1665 22.1813 4.1665 20.0028C4.1665 17.8129 4.58206 15.7546 5.41317 13.8277C6.24428 11.9007 7.3722 10.2246 8.79692 8.79925C10.2217 7.37386 11.8971 6.24543 13.8231 5.41396C15.7492 4.58249 17.8071 4.16675 19.997 4.16675C22.1869 4.16675 24.2407 4.58231 26.1583 5.41342C28.0759 6.24453 29.7521 7.37244 31.1867 8.79716C32.6214 10.2219 33.7544 11.8973 34.5859 13.8234C35.4174 15.7494 35.8331 17.8074 35.8331 19.9972C35.8331 22.1758 35.4175 24.2267 34.5864 26.15C33.7553 28.0733 32.6228 29.7523 31.1888 31.187C29.7548 32.6216 28.0794 33.7547 26.1626 34.5861C24.2458 35.4176 22.1925 35.8333 20.0026 35.8333ZM19.9998 33.7394C23.816 33.7394 27.06 32.4035 29.7316 29.7319C32.4033 27.0602 33.7391 23.8163 33.7391 20C33.7391 16.1724 32.4033 12.9256 29.7316 10.2597C27.06 7.59369 23.816 6.26071 19.9998 6.26071C16.1722 6.26071 12.9254 7.59369 10.2594 10.2597C7.59345 12.9256 6.26046 16.1724 6.26046 20C6.26046 23.8163 7.59345 27.0602 10.2594 29.7319C12.9254 32.4035 16.1722 33.7394 19.9998 33.7394Z" fill="white"/>
</g>
</svg>
