<svg width="30" height="30" viewBox="0 0 30 30" fill="none" xmlns="http://www.w3.org/2000/svg">
<mask id="mask0_59_26" style="mask-type:alpha" maskUnits="userSpaceOnUse" x="0" y="0" width="30" height="30">
<rect x="0.599976" y="0.599976" width="28.8" height="28.8" fill="#D9D9D9"/>
</mask>
<g mask="url(#mask0_59_26)">
<path d="M8.4 23.4C6.89846 23.4 5.62307 22.8754 4.57383 21.8261C3.52461 20.7769 3 19.5015 3 18C3 16.6707 3.45807 15.4688 4.37421 14.3942C5.29037 13.3196 6.47076 12.7354 7.91538 12.6415C8.2 10.8261 9.02077 9.36535 10.3777 8.25919C11.7346 7.15305 13.2754 6.59998 15 6.59998C17.0108 6.59998 18.7135 7.29805 20.1081 8.69419C21.5027 10.0903 22.2 11.7923 22.2 13.8V15H22.9385C24.1 15.0369 25.0673 15.4646 25.8404 16.283C26.6135 17.1015 27 18.0638 27 19.17C27 20.3469 26.5942 21.3461 25.7827 22.1677C24.9712 22.9892 23.9769 23.4 22.8 23.4H8.4ZM8.4 22.2H22.8C23.64 22.2 24.35 21.91 24.93 21.33C25.51 20.75 25.8 20.04 25.8 19.2C25.8 18.36 25.51 17.65 24.93 17.07C24.35 16.49 23.64 16.2 22.8 16.2H21V13.8C21 12.14 20.415 10.725 19.245 9.55498C18.075 8.38498 16.66 7.79998 15 7.79998C13.6015 7.79998 12.3469 8.24883 11.2362 9.14653C10.1254 10.0442 9.43231 11.21 9.15693 12.6438C10.4092 12.8423 11.4962 13.4234 12.4177 14.3873C13.3392 15.3511 13.8 16.5554 13.8 18H12.6C12.6 16.84 12.19 15.85 11.37 15.03C10.55 14.21 9.56 13.8 8.4 13.8C7.24 13.8 6.25 14.21 5.43 15.03C4.61 15.85 4.2 16.84 4.2 18C4.2 19.16 4.61 20.15 5.43 20.97C6.25 21.79 7.24 22.2 8.4 22.2Z" fill="white"/>
</g>
</svg>
