<svg width="24" height="24" viewBox="0 0 24 24" fill="none" xmlns="http://www.w3.org/2000/svg">
<mask id="mask0_283_2820" style="mask-type:alpha" maskUnits="userSpaceOnUse" x="0" y="0" width="24" height="24">
<rect width="24" height="24" fill="#D9D9D9"/>
</mask>
<g mask="url(#mask0_283_2820)">
<path d="M19.4846 20.1539L13.223 13.8923C12.723 14.318 12.148 14.6474 11.498 14.8808C10.848 15.1141 10.1948 15.2308 9.53839 15.2308C7.93673 15.2308 6.58118 14.6764 5.47177 13.5676C4.36233 12.4587 3.80762 11.1039 3.80762 9.50313C3.80762 7.90233 4.36203 6.54648 5.47084 5.43558C6.57966 4.32468 7.93447 3.76923 9.53527 3.76923C11.1361 3.76923 12.4919 4.32393 13.6028 5.43335C14.7137 6.54277 15.2692 7.89832 15.2692 9.5C15.2692 10.1949 15.1461 10.8673 14.8999 11.5173C14.6538 12.1673 14.3307 12.7231 13.9307 13.1846L20.1923 19.4462L19.4846 20.1539ZM9.53839 14.2308C10.8653 14.2308 11.9855 13.774 12.899 12.8606C13.8124 11.9471 14.2692 10.8269 14.2692 9.5C14.2692 8.17309 13.8124 7.05289 12.899 6.13943C11.9855 5.22596 10.8653 4.76923 9.53839 4.76923C8.21147 4.76923 7.09128 5.22596 6.17782 6.13943C5.26437 7.05289 4.80764 8.17309 4.80764 9.5C4.80764 10.8269 5.26437 11.9471 6.17782 12.8606C7.09128 13.774 8.21147 14.2308 9.53839 14.2308Z" fill="#B9B9B9" fill-opacity="0.4"/>
</g>
</svg>
