<svg width="16" height="20" viewBox="0 0 16 20" fill="none" xmlns="http://www.w3.org/2000/svg">
<path d="M0.223702 16.7852C0.0965134 16.7984 0.000249252 16.9054 0.000249252 17.0331V18.4967C0.000249252 18.6262 0.099007 18.7339 0.227692 18.7451C0.758392 18.7917 1.16914 19.2269 1.18335 19.7571C1.18709 19.8923 1.29757 20 1.43274 20H2.68717C2.82234 20 2.93281 19.8923 2.93656 19.7574C2.95202 19.1838 3.41189 18.7346 3.98349 18.7346C4.55534 18.7346 5.01546 19.1838 5.03067 19.7574C5.03442 19.8923 5.1449 20 5.28006 20H6.53449C6.66966 20 6.78014 19.8923 6.78388 19.7571C6.79934 19.1838 7.25897 18.7346 7.83081 18.7346C8.40266 18.7346 8.86279 19.1838 8.878 19.7574C8.88174 19.8923 8.99222 20 9.12739 20H10.3818C10.517 20 10.6275 19.8923 10.6312 19.7571C10.6467 19.1838 11.1063 18.7346 11.6781 18.7346C12.25 18.7346 12.7099 19.1838 12.7251 19.7571C12.7288 19.8923 12.8393 20 12.9745 20H14.2291C14.3643 20 14.4748 19.8923 14.4785 19.7571C14.4932 19.2085 14.9349 18.7616 15.4846 18.7396C15.6182 18.7344 15.724 18.6244 15.724 18.4905V17.0415C15.724 16.9076 15.6182 16.7976 15.4846 16.7924C14.9182 16.77 14.4748 16.3106 14.4748 15.7467C14.4748 15.1828 14.9182 14.7232 15.4843 14.701C15.6182 14.6958 15.724 14.5858 15.724 14.4519V13.1942C15.724 13.0603 15.6182 12.9501 15.4843 12.9451C14.9182 12.9226 14.4748 12.4633 14.4748 11.8994C14.4748 11.3355 14.9182 10.8759 15.4846 10.8537C15.6182 10.8485 15.724 10.7385 15.724 10.6046V9.34689C15.724 9.21297 15.6182 9.10274 15.4843 9.09775C14.9182 9.0753 14.4748 8.61593 14.4748 8.05206C14.4748 7.48819 14.9182 7.02882 15.4843 7.00662C15.6182 7.00138 15.724 6.8914 15.724 6.75748V5.49956C15.724 5.36564 15.6182 5.25541 15.4843 5.25042C14.9182 5.22798 14.4748 4.76885 14.4748 4.20498C14.4748 3.64112 14.9182 3.18149 15.4843 3.1593C15.6182 3.15406 15.724 3.04408 15.724 2.91016V1.53054C15.724 1.39662 15.6182 1.28638 15.4843 1.2814C14.9252 1.25945 14.4823 0.805312 14.4763 0.24743C14.4748 0.110765 14.3636 0.000784387 14.2269 0.000784387H12.9765C12.8398 0.000784387 12.7286 0.110765 12.7271 0.24743C12.7208 0.820275 12.2502 1.28638 11.6779 1.28638C11.1058 1.28638 10.6352 0.820275 10.6287 0.247181C10.6272 0.110516 10.516 0.000784387 10.3793 0.000784387H9.12888C8.99222 0.000784387 8.88099 0.110765 8.87949 0.24743C8.87401 0.819527 8.40341 1.28564 7.83106 1.28564C7.25897 1.28564 6.78837 0.819527 6.78213 0.246682C6.78064 0.110017 6.66941 3.6155e-05 6.53274 3.6155e-05H5.28206C5.14539 3.6155e-05 5.03417 0.110017 5.03267 0.246682C5.02644 0.819527 4.55584 1.28564 3.98349 1.28564C3.41139 1.28564 2.94079 0.819527 2.93456 0.246682C2.93306 0.110017 2.82184 3.6155e-05 2.68517 3.6155e-05H1.43449C1.29782 3.6155e-05 1.18659 0.110017 1.1851 0.246682C1.17936 0.78561 0.767619 1.22803 0.227692 1.27516C0.0987576 1.28638 0 1.39437 0 1.52355V2.91789C0 3.04557 0.0965135 3.15256 0.223453 3.16578C0.760387 3.22214 1.16539 3.6688 1.16539 4.20449C1.16539 4.74017 0.760387 5.18658 0.223453 5.24294C0.0965135 5.25616 0 5.36315 0 5.49083V6.76521C0 6.8929 0.0965135 6.99989 0.223453 7.0131C0.760138 7.06922 1.16515 7.51562 1.16515 8.05156C1.16515 8.58749 0.760138 9.0339 0.223453 9.09002C0.0962641 9.10323 0 9.21022 0 9.33791V10.6125C0 10.7402 0.0965135 10.8472 0.223453 10.8604C0.760138 10.9165 1.16515 11.363 1.16515 11.8989C1.16515 12.4348 0.760138 12.8812 0.223453 12.9373C0.0962641 12.9506 0 13.0575 0 13.1852V14.4599C0 14.5875 0.0965135 14.6945 0.223453 14.7078C0.760138 14.7639 1.16515 15.2103 1.16515 15.7462C1.16515 16.2821 0.760387 16.7293 0.223702 16.7852ZM0.499027 14.2519V13.3942C1.17712 13.2226 1.66442 12.6151 1.66442 11.8994C1.66442 11.1836 1.17712 10.5761 0.499027 10.4045V9.5469C1.17712 9.37532 1.66442 8.7678 1.66442 8.05206C1.66442 7.33632 1.17712 6.7288 0.499027 6.55722V5.69957C1.17712 5.52799 1.66442 4.92048 1.66442 4.20498C1.66442 3.48949 1.17712 2.88173 0.499027 2.71015V1.73578C1.1013 1.59288 1.55793 1.10632 1.66193 0.499313H2.45848C2.58467 1.22728 3.2231 1.78491 3.98349 1.78491C4.74388 1.78491 5.38256 1.22728 5.50875 0.499313H6.3058C6.43199 1.22728 7.07043 1.78491 7.83081 1.78491C8.5912 1.78491 9.22989 1.22728 9.35608 0.499313H10.1529C10.2793 1.22753 10.918 1.78491 11.6781 1.78491C12.4385 1.78491 13.0772 1.22728 13.2034 0.499313H14C14.1082 1.12852 14.597 1.62855 15.2252 1.75174V2.6887C14.5082 2.82811 13.976 3.45333 13.976 4.20498C13.976 4.95639 14.5082 5.58186 15.2252 5.72102V6.53627C14.5082 6.67568 13.976 7.3009 13.976 8.05231C13.976 8.80396 14.5082 9.42919 15.2252 9.56859V10.3836C14.5082 10.5233 13.976 11.1485 13.976 11.8999C13.976 12.6515 14.5082 13.2768 15.2252 13.4162V14.2312C14.5082 14.3706 13.976 14.9958 13.976 15.7475C13.976 16.4989 14.5082 17.1243 15.2252 17.2637V18.2703C14.6077 18.3927 14.1214 18.884 14.0054 19.5018H13.1987C13.0665 18.7755 12.4395 18.2366 11.6779 18.2366C10.9165 18.2366 10.2895 18.7755 10.1571 19.5018H9.35109C9.21891 18.7755 8.5917 18.2366 7.83032 18.2366C7.06893 18.2366 6.44197 18.7755 6.30954 19.5018H5.50426C5.37209 18.7755 4.74487 18.2366 3.98349 18.2366C3.22211 18.2366 2.59539 18.7755 2.46297 19.5018H1.65619C1.54496 18.9057 1.09058 18.4279 0.498778 18.286V17.2415C1.17687 17.07 1.66417 16.4625 1.66417 15.7467C1.66417 15.031 1.17687 14.4237 0.499027 14.2519Z" fill="white"/>
</svg>
