<svg viewBox="0 0 22 22" xmlns="http://www.w3.org/2000/svg"><path d="m18.292969 3-3.5 3.5-1.5-1.5-2 2-1.792969 1.7929688 1.5 1.5000002.707031.707031 1.5 1.5 1.792969-1.792969 2-1.9999998-1.5-1.5 3.5-3.5zm-9.5000002 6.5-.7929688.792969-2 2 1.5 1.5-4.5 4.5.7070312.707031 4.5-4.5 1.5 1.5 1.9999998-2 .792969-.792969-1.5-1.5-.707031-.707031z" fill="#eff0f1"/><path d="m14.833984 14-.833984.833984 1.666016 1.666016-1.666016 1.666016.833984.833984 1.666016-1.666016 1.666016 1.666016.833984-.833984-1.666016-1.666016 1.666016-1.666016-.833984-.833984-1.666016 1.666016z" fill="#da4453"/></svg>