<svg width="21" height="20" viewBox="0 0 21 20" fill="none" xmlns="http://www.w3.org/2000/svg">
<g id="settings">
<path fill-rule="evenodd" clip-rule="evenodd" d="M7.63879 16.7935L8.04403 20H12.956L13.3612 16.7834C13.6491 16.6822 13.9302 16.5516 14.2045 16.3917C14.4787 16.2318 14.7475 16.0479 15.0109 15.84L18.0072 17.1052L20.4632 12.8947L17.8455 10.9433C17.8878 10.753 17.9123 10.584 17.9192 10.4362C17.926 10.2885 17.9294 10.1431 17.9294 10C17.9294 9.85019 17.9277 9.7014 17.9243 9.55363C17.9209 9.40586 17.9001 9.24695 17.8619 9.07689L20.5 7.10526L18.044 2.91501L15.0109 4.15996C14.7475 3.95212 14.4866 3.77161 14.228 3.61843C13.9694 3.46525 13.6805 3.33132 13.3612 3.21661L12.956 0H8.04403L7.62854 3.20648C7.34747 3.30769 7.06127 3.44164 6.76994 3.60833C6.47863 3.77499 6.20472 3.95887 5.94819 4.15996L2.95597 2.91501L0.5 7.10526L3.09722 9.04655C3.07265 9.23008 3.05525 9.3991 3.04502 9.55363C3.03478 9.70816 3.02967 9.86033 3.02967 10.0101C3.02967 10.1667 3.03478 10.3239 3.04502 10.4818C3.05525 10.6397 3.07265 10.7969 3.09722 10.9535L0.5 12.8947L2.95597 17.1052L5.95844 15.8502C6.19449 16.0445 6.46227 16.2267 6.76177 16.3968C7.06128 16.5668 7.35362 16.699 7.63879 16.7935ZM11.5274 18.4211H9.43573L9.08984 15.6114C8.53314 15.471 8.02488 15.2699 7.56506 15.0081C7.10524 14.7463 6.6734 14.4103 6.26952 14L3.63545 15.1053L2.58754 13.3158L4.87572 11.5951C4.79386 11.3387 4.7352 11.079 4.69972 10.8158C4.66425 10.5526 4.64651 10.2841 4.64651 10.0101C4.64651 9.71189 4.66425 9.42781 4.69972 9.15789C4.7352 8.88798 4.79728 8.6282 4.88597 8.37855L2.58754 6.6842L3.63545 4.89472L6.27977 5.98381C6.69728 5.57084 7.13595 5.23345 7.59576 4.97164C8.05558 4.70984 8.55702 4.5155 9.10009 4.38864L9.45209 1.57893H11.5643L11.8999 4.39878C12.4088 4.51888 12.912 4.72334 13.4093 5.01214C13.9067 5.30093 14.3334 5.63359 14.6895 6.01012L17.3646 4.89472L18.4125 6.6842L16.0833 8.4251C16.172 8.69096 16.2324 8.95142 16.2645 9.20647C16.2965 9.46154 16.3125 9.72605 16.3125 10C16.3125 10.2672 16.2965 10.5317 16.2645 10.7935C16.2324 11.0553 16.172 11.3225 16.0833 11.5951L18.392 13.3158L17.3441 15.1053L14.6998 14.0061C14.2822 14.4123 13.8487 14.7446 13.3991 15.003C12.9495 15.2615 12.4532 15.4609 11.9102 15.6012L11.5274 18.4211Z" fill="#282828"/>
<path fill-rule="evenodd" clip-rule="evenodd" d="M9.43573 18.4211H11.5274L11.9102 15.6012C12.4532 15.4609 12.9495 15.2615 13.3991 15.003C13.8487 14.7446 14.2822 14.4123 14.6998 14.0061L17.3441 15.1053L18.392 13.3158L16.0833 11.5951C16.172 11.3225 16.2324 11.0553 16.2645 10.7935C16.2965 10.5317 16.3125 10.2672 16.3125 10C16.3125 9.72605 16.2965 9.46154 16.2645 9.20647C16.2324 8.95142 16.172 8.69096 16.0833 8.4251L18.4125 6.6842L17.3646 4.89472L14.6895 6.01012C14.3334 5.63359 13.9067 5.30093 13.4093 5.01214C12.912 4.72334 12.4088 4.51888 11.8999 4.39878L11.5643 1.57893H9.45209L9.10009 4.38864C8.55702 4.5155 8.05558 4.70984 7.59576 4.97164C7.13595 5.23345 6.69728 5.57084 6.27977 5.98381L3.63545 4.89472L2.58754 6.6842L4.88597 8.37855C4.79728 8.6282 4.7352 8.88798 4.69972 9.15789C4.66425 9.42781 4.64651 9.71189 4.64651 10.0101C4.64651 10.2841 4.66425 10.5526 4.69972 10.8158C4.7352 11.079 4.79386 11.3387 4.87572 11.5951L2.58754 13.3158L3.63545 15.1053L6.26952 14C6.6734 14.4103 7.10524 14.7463 7.56506 15.0081C8.02488 15.2699 8.53314 15.471 9.08984 15.6114L9.43573 18.4211ZM12.7728 12.2358C12.1513 12.8505 11.3978 13.1579 10.5123 13.1579C9.61585 13.1579 8.85961 12.8505 8.24356 12.2358C7.62752 11.6211 7.31951 10.8758 7.31951 10C7.31951 9.12417 7.62752 8.3789 8.24356 7.76418C8.85961 7.14948 9.61585 6.84212 10.5123 6.84212C11.3978 6.84212 12.1513 7.14948 12.7728 7.76418C13.3943 8.3789 13.7051 9.12417 13.7051 10C13.7051 10.8758 13.3943 11.6211 12.7728 12.2358Z" fill="#282828"/>
</g>
</svg>
